<?xml version="1.0" encoding="utf-8"?>
<!-- Generator: Adobe Illustrator 16.0.0, SVG Export Plug-In . SVG Version: 6.00 Build 0)  -->
<!DOCTYPE svg PUBLIC "-//W3C//DTD SVG 1.1//EN" "http://www.w3.org/Graphics/SVG/1.1/DTD/svg11.dtd">
<svg version="1.1" id="Layer_1" xmlns="http://www.w3.org/2000/svg" xmlns:xlink="http://www.w3.org/1999/xlink" x="0px" y="0px"
	 width="99.5px" height="144px" viewBox="0 0 99.5 144" enable-background="new 0 0 99.5 144" xml:space="preserve">
<g enable-background="new    ">
	<path fill="#FFFFFF" d="M75.125,125.249c-2.281,0.526-4.388,0.526-6.669,0.526c-1.403-0.175-2.982,0-4.562,0h-1.229
		c-1.053-0.351-1.579-1.053-1.755-1.93l-1.404-7.194c-0.175-0.176-0.175-0.352-0.351-0.878c-0.526-1.229-0.526-2.456-1.053-3.86
		c-0.176-0.526-0.526-1.229-0.702-2.456c-0.351-1.054-0.526-2.106-0.526-3.159c-0.526-3.51-1.229-7.019-1.931-10.528
		c-0.175-1.229-0.351-2.105-0.351-3.334l-0.526-2.983c-0.176-0.702-0.526-1.053-1.403-1.053c-1.931,0.526-3.686,0.351-5.616,0.526
		c-0.527,0-0.527-0.176-1.053-0.176s-1.053-0.175-1.579-0.175c-0.526,0.877-0.526,1.755-0.702,2.456v1.053
		c-0.702,1.404-0.526,2.809-0.526,4.212c0,1.931-0.175,3.334-0.175,5.265c-0.176,1.403-0.351,2.808-0.176,4.387
		c0,2.105-0.175,4.211-0.702,6.317c-0.175,2.28-0.526,4.562-1.053,6.843l-5.264,4.738c-0.527,0.526-1.053,0.702-1.58,0.702
		c-2.281-0.352-4.562-0.352-7.194-0.176c-0.702,0-1.229,0-1.58-0.176c-0.526,0-1.404-0.175-2.632-0.351
		c-0.351,0-0.702-0.176-1.229-0.351c-0.526-0.176-0.877-0.702-0.877-1.229s0.176-0.526,0.176-1.053c0-1.229,0.702-2.457,0.526-3.686
		c0.702-2.632,0.702-5.089,0.877-7.721c0.175-3.334,0.702-6.317,1.228-9.651c0.702-3.685,1.58-7.37,2.457-11.055
		c0.877-3.334,1.58-6.493,1.58-10.002c0-0.526,0.175-1.229,0.351-2.457c0.526-2.632,0.526-5.089,1.053-7.721
		c0.526-1.931,0.526-3.51,1.053-5.089c0.176-1.579,0.176-2.983,0.702-4.562l0.526-3.86c0.526-2.281,0.351-4.562,0.877-7.195
		c0.526-2.983,0.702-5.966,1.228-8.949c0.176-0.526,0-1.228,0-1.755c-0.175-1.053-0.175-1.93,0.351-2.632
		c0.526-0.526,0.351-1.404,0.526-2.106c0.175-1.579,0.175-2.983,0.702-4.913v-1.053V25.93c0.526-1.229,0.702-2.281,0.877-3.51
		c0-0.351,0.175-0.702,0.702-0.877c1.579-0.702,2.983-1.579,4.387-2.457c0.877-0.526,1.58-1.053,2.106-2.281
		c0.877-0.175,1.93-0.175,2.983,0c1.58,0.175,2.983,0.175,4.562,0.175h6.493c1.229,0,1.755,0.176,2.982,0.176
		c0.702,0,1.229,0,1.58,0.175h1.754c1.404,0.526,1.755,0.702,1.755,2.281c0,1.229,0.352,2.457,0.526,3.86l1.58,9.476l0.526,2.105
		c0.175,2.281,0.877,4.387,1.053,7.019c0,0.877,0.351,1.755,0.526,2.632c0.526,3.334,1.229,6.142,1.403,9.476
		c0.176,2.281,0.352,4.387,0.878,6.492c0.526,2.983,0.702,6.143,1.229,9.125c0,0.176,0,0.352,0.175,0.526
		c0.526,2.106,0.702,4.212,0.878,6.317c0,0.877,0.175,1.755,0.526,2.457c0.175,0.351,0.175,0.877,0.175,1.403
		c0,1.229,0.176,2.457,0.352,3.686c0.176,2.808,0.351,5.79,0.877,8.598c0.526,2.106,0.352,4.212,0.878,6.142
		c0.526,1.931,0.877,3.686,1.053,5.615c0.176,2.281,0.877,4.387,0.877,6.668c0,0.527,0.352,1.229,0.526,1.755l0.702,4.914
		c0,0.526-0.176,1.228-0.702,1.754c-1.053,1.054-1.755,2.106-2.281,3.159L75.125,125.249z M23.359,119.459h-0.351
		c-0.877,1.579-0.351,2.632,1.404,2.982h1.229L23.359,119.459z M24.587,112.089c0,0-0.176-0.176-0.351-0.351l-0.526,0.701
		c-0.351,0.878-0.351,1.931,0.175,3.159l0.175,0.175c0.527-0.526,0.351-0.701,0.877-0.877
		C24.938,113.668,24.763,112.966,24.587,112.089z M26.518,94.893c-0.702,2.105-1.404,4.035-1.404,6.142
		c-0.526,2.632-0.702,5.264-1.229,8.071c0,0.176,0.175,0.526,0.175,0.702c0,0.351,0.176,0.351,0.527,0
		c0-0.176,0.175-0.351,0.175-0.526c0.175-1.229,0-1.931,0.526-3.158c0.526-0.878,0.351-1.755,0.526-2.457
		c0.175-2.105,0.175-4.212,0.702-6.317V94.893z M26.868,110.685h0.351c0-0.175,0-0.526-0.175-0.877
		C27.044,110.334,27.044,110.51,26.868,110.685z M29.676,95.77v-0.351c-0.175,0-0.175,0-0.175-0.176h-0.175
		c-0.527,0-0.702,0.176-0.702,0.702c-0.526,2.632-0.702,5.089-1.228,7.721c-0.176,0.877,0.175,1.755,1.053,2.457
		C28.974,102.438,29.149,99.104,29.676,95.77z M30.904,121.564c-0.526-1.579-0.526-1.755-1.93-1.229
		c-0.176,1.404,0,1.579,1.404,1.579L30.904,121.564z M77.581,114.896c-0.176-1.579-0.351-3.158-0.877-4.738
		c-0.526-2.808-0.526-5.439-1.053-8.071l-0.702-3.686c-0.176-1.403,0-2.808-0.526-4.211c-0.702-4.387-0.878-8.774-1.579-13.161
		c-0.176-2.281-0.702-4.387-0.702-7.019c0-0.176-0.176-0.176-0.176-0.352c-0.526-2.808-0.702-5.615-1.229-8.247
		s-0.526-4.562-1.053-7.194c-0.175-1.404-0.526-2.808-0.526-4.211c0-2.632-0.526-4.738-1.053-7.37l-1.053-6.844
		c-0.526-1.228-0.526-2.457-0.702-3.685c-0.526-2.105-0.702-4.211-1.229-6.317l-1.579-10.178c0-0.175,0-0.351-0.176-0.526
		c-0.175,0-0.526-0.175-1.228-0.351h-1.931c-2.632-0.526-5.265-0.351-7.896-0.175c-0.176,0.175-0.526,0.175-1.053,0.175
		c-1.931-0.526-3.334-0.175-5.265-0.351c-1.053-0.176-1.754,0.351-2.105,1.403l-1.58,6.142c0.176,1.228,0,2.457-0.526,3.685
		c-0.526,1.228-0.351,1.93-0.526,3.158l-1.404,8.248l-0.351,1.053c-0.175,2.632-0.526,4.562-1.053,7.195
		c-0.702,4.738-1.755,8.949-2.281,13.687l-1.755,11.23c-0.526,1.931-0.351,3.51-0.877,5.44c-0.526,2.105-0.702,4.387-0.877,6.668
		c-0.526,1.579-0.351,3.334-0.877,4.913c-0.526,3.334-0.526,6.668-1.053,10.002c-0.526,2.105-0.526,4.212-0.702,6.317
		c-0.526,2.632-0.702,5.265-0.877,7.896c-0.175,0.526-0.175,1.229-0.175,2.457c0.351,0.526,0.702,0.526,1.229,0.351
		c0.526,0,0.526-0.176,1.053-0.176h6.493c0.526-0.175,0.877,0,1.053,0c0.526-0.526,0.877-1.229,0.877-2.105
		c0.526-1.404,0.526-2.808,0.702-4.211c0.351-1.931,0.526-3.686,0.526-5.615c0-1.229,0.176-2.633,0.176-3.861
		c0.175-1.403,0.175-2.808,0.175-4.211c0.176-1.931-0.175-3.686,0.351-5.615c0.175-0.702,0.351-1.229,0.351-1.755l0.702-8.072
		c0-0.701,0.175-1.053,0.351-1.228c1.93-0.527,3.509-0.527,5.089-1.054c0.175-0.175,0.351-0.175,0.702-0.175
		c1.404-0.176,2.633-0.352,4.036-0.352c1.229,0,2.457-0.526,3.686,0c0.877,0.176,1.755,0.176,2.632-0.175
		c0.526,0.175,0.351,0.351,0.877,0.526c0.352,0.175,0.702,0.526,0.878,1.053c0.877,4.737,1.579,9.125,2.105,13.862
		c0.176,1.931,0.351,3.686,0.878,5.615c0.701,3.686,1.403,7.194,2.28,10.704l0.702,4.212c0.176,0.877,0.702,1.403,1.579,1.579
		l3.686,0.526c1.403,0,2.632,0,4.036,0.176c0.526,0,0.877-0.176,1.579-0.176C77.757,116.476,77.757,115.423,77.581,114.896z
		 M30.027,74.537c0-0.176,0-0.176,0.176-0.176v-0.351V72.08C30.203,72.958,30.027,73.659,30.027,74.537
		c-0.175,0-0.175,0-0.175,0.175v0.176c0.175,0,0.175,0,0.175-0.176V74.537z M30.729,88.224c0-0.701,0.175-1.93,0-2.632
		c-0.702,1.931-0.702,3.158-0.526,5.089L30.729,88.224z M30.729,68.044c0,0.176,0.175,0.176,0.175,0.352
		c0.526-0.702,1.053-1.229,1.053-1.931c0.176-1.403,0.526-2.808,0-4.211C31.431,64.184,31.255,66.114,30.729,68.044z M33.01,119.81
		c-0.176,0.526-0.176,1.053,0.351,1.229C33.537,120.512,33.537,119.985,33.01,119.81z M33.01,71.378v-0.351V71.378z M34.765,49.619
		c0.526,2.106,0.351,4.211,0.176,6.317c0,0.526,0,1.053,0.175,1.229c0.702-2.106,0.877-4.212,1.404-6.493
		c-0.702-0.175-1.053-0.877-1.053-1.754c0-0.176-0.176-0.702-0.351-1.404C34.589,48.391,34.238,48.391,34.765,49.619z M34.765,58.92
		v0.701V58.92z M35.467,39.617h0.175c0-0.176,0-0.351-0.175-0.351V39.617z M37.748,43.126c-0.176-0.175-0.527-0.175-0.877-0.175
		c-0.176,0-0.351-0.175-0.877-0.175c0.175,1.579,0.175,3.158,0.877,4.738C37.397,45.934,37.221,44.53,37.748,43.126z M37.397,119.81
		c-0.526,0-1.053,0-1.229-0.176C36.871,120.336,36.871,120.336,37.397,119.81z M36.52,35.055c0-0.175,0.175-0.351,0.175-0.526
		c-0.175,0-0.175,0-0.175-0.175v0.175V35.055c0.526,1.93,0.526,3.685,1.053,5.615c0,0.176,0.176,0.526,0.351,0.702
		c0.526-1.931,1.93-9.3,1.93-11.055c-0.877-0.702-0.877-0.702-1.404-1.93l-0.702-1.404c-0.351-0.175-0.702-0.175-0.877,0v0.526
		c0,2.281,0.526,4.211,1.404,5.791c0.526,0.526,0.351,1.053,0.526,1.58c0,0.175-0.175,0.526-0.351,0.702
		c-0.175,0.176-0.526,0.176-0.877,0l-0.526-0.526H36.52z M39.502,24.702c0,0-0.175-0.175-0.702-0.702
		c0.175,1.579,0.702,2.632,1.404,3.334C40.38,26.105,39.678,25.579,39.502,24.702z M41.082,23.824c0-1.229,1.228-2.105,0.702-3.509
		c-0.526,0.526-1.053,0.351-1.579,0.877C40.38,22.771,40.38,23.123,41.082,23.824z M44.767,83.135
		c-0.526,0.527-0.176,1.054-0.351,1.58c0,0.351-0.175,0.877-0.351,1.579c0,0.351,0.176,0.526,0.702,0.351V83.135z M45.293,63.481
		c0-0.701,0.175-1.403,0.175-1.93c0-0.702,0.175-1.404,0.175-2.105c0.527-2.281,0.702-4.387,0.877-6.668
		c0-1.93,0.351-3.509,0.527-5.44l0.526-7.194c0.526-1.93,0.702-3.86,0.877-5.791c0.176-1.229,0.351-2.106,0.351-2.632
		s0.351-1.053,0.877-1.229c0.526-0.526,1.053-0.351,1.58-0.877c1.229,0.526,1.931,0.526,2.632,0.702c0.526,0,0.702,0,0.878,0.175
		c0.526,0.176,0.877,0.702,0.877,1.229c0.176,2.105,0.702,4.387,0.702,6.493c0.176,1.93,0.526,3.334,0.702,4.913
		c0,0.527,0.175,0.351,0.175,0.877c-0.175,2.106,0.352,4.211,0.526,6.317l1.054,6.844c0,0.701,0.175,1.228,0.351,1.93
		c0,0.526,0.176,1.229,0.176,1.931l0.351,1.403c0.526,1.229,0.351,2.281,0.351,3.51v0.526c0,1.931-0.175,1.755-1.754,1.755
		c-1.229-0.176-1.931-0.526-3.159,0c-0.176,0.176-0.351,0.176-0.526,0c-1.93-0.702-3.86-0.702-5.791-0.702
		c-1.228-0.175-2.632,0-4.036-0.526L45.293,63.481z M46.346,83.135c-0.526,1.229-0.526,2.281,0,3.51
		c0,0.176,0.175,0.352,0.526,0.352l0.351-0.352c0.175-0.176,0.175-0.702,0.175-1.229c-0.526-0.877-0.351-1.579-0.526-2.808
		C46.521,82.784,46.346,82.96,46.346,83.135z M49.329,42.951c-0.526,1.404-0.526,2.808-0.526,4.036
		c-0.175,3.334-0.877,6.492-0.877,9.826c0,0.526-0.175,1.229-0.351,2.106l-0.351,1.93c0,0.878-0.175,1.931-0.175,2.808
		c0,0.526-0.527,1.229,0,1.931c0.175,0,0.351,0.175,0.526,0.175l5.791,0.352c0.176,0,0.176-0.176,0.702-0.176
		c-0.526-1.931-0.526-3.685-0.702-5.615l-0.526-3.158c-0.175-1.229-0.351-2.281-0.351-3.51c-0.176-1.579-0.526-3.159-0.702-5.089
		c0-1.404,0-2.983-0.176-4.387c-0.175-1.404-0.175-1.755-1.754-1.229H49.329z M49.505,81.907c-0.176,0.175-0.351,0.351-0.351,0.526
		c0,1.229,0,2.105,0.175,2.632v0.702c0.176,0.526,0.527,0.701,1.054,0.175c0.175-0.175,0.351-0.526,0.351-0.701v-2.983
		c0,0-0.176-0.176-0.351-0.351H49.505z M49.505,41.021c0.702,0.526,0.702,0.351,1.579-0.175
		C50.558,40.67,50.031,40.846,49.505,41.021z M52.488,34.879c-0.176-0.526,0.176-1.053-0.526-1.229
		c-0.526,0.702-0.526,1.755-0.352,3.334C51.786,35.757,52.664,35.757,52.488,34.879z M54.418,81.556h-1.403
		c0.176,0.352,0.176,0.702,0.176,1.229c0,0.351-0.176,0.702-0.352,1.229c0,0.526-0.175,0.702-0.175,1.229s0.351,1.053,1.053,1.579
		C53.717,84.89,53.717,83.135,54.418,81.556z M53.365,42.776c0,0.526-0.175,0.877,0.702,1.404c-0.526-1.404,0-2.632-0.526-3.861
		C53.19,40.846,53.19,41.547,53.365,42.776z M53.717,32.247v0.351c0-0.175,0-0.175,0.175-0.175L53.717,32.247z M53.892,50.848v0.877
		c0,0.351,0,0.526,0.176,0.702C54.243,51.9,54.067,51.374,53.892,50.848z M54.067,34.002c-0.176,1.93-0.176,1.93,0.351,2.632
		C54.418,35.406,54.243,34.879,54.067,34.002z M55.472,54.884c-0.176,0.526,0,0.877-0.527,1.403
		c-0.526,0.878-0.351,1.755,0.176,2.983C55.998,58.218,55.998,56.813,55.472,54.884z M55.296,47.338
		c0.526,1.58,0.877,3.159,0.351,4.738v0.351c0.176,0.526,0.352,0.702,0.878,0.702c-0.526-2.808-0.526-5.615-1.053-8.599
		C54.944,46.461,54.77,46.11,55.296,47.338z M57.401,65.412l-1.229,1.229c0.878-0.526,1.579,0.176,2.106-0.352
		c0.526-0.877,0.175-1.579-0.352-2.456L57.401,65.412z M56.875,85.065c0,0.176,0.176,0.176,0.176,0.702
		c0.526-0.352,0.701-0.878,0.175-1.579L56.875,85.065z M58.454,92.084c0.176-1.228,0-2.28-0.526-3.158c0,1.404-0.176,2.632,0,3.86
		C58.279,92.786,58.454,92.611,58.454,92.084z M65.824,124.021c0.702,0,1.229,0,1.404-0.176c0.351,0,0.526-0.176,0.526-0.351
		c-0.526-0.176-0.878,0-1.404-0.526c-1.229-0.527-1.403-1.931-2.632-2.457c-0.176-0.176-0.526-0.352-0.702-0.878l-1.229-3.334
		c-0.526-1.228-0.351-1.93-0.877-3.158c-0.176-0.702-0.526-1.403-0.702-2.281c-0.526-2.632-1.229-4.913-1.403-7.546
		c0-0.175-0.352-0.175-0.526-0.701c0,1.579-0.176,2.982,0.351,4.211l1.403,5.967c0.526,1.579,0.702,2.982,1.229,4.562l1.404,5.264
		c0,0.526,0.175,0.878,0.526,1.404H65.824z M58.279,96.12c0-0.175,0.175-0.175,0.175-0.351l-0.175-0.176V96.12z M58.98,82.082
		v-0.175c-0.175,0.175-0.175,0.175-0.175,0.175H58.98z M59.332,87.347c0.526,1.229,0.701,1.931,0.526,3.158
		c0,0.878,0.351,1.229,1.053,1.404c0-1.404-0.526-2.808-0.702-4.212c-0.176-1.229-0.176-2.281-0.877-3.509
		C59.156,85.241,59.156,86.294,59.332,87.347z M61.262,102.438c-1.053,0.877-1.229,1.755-0.526,2.808
		c0.526-0.176,0.878-0.702,0.878-1.229L61.262,102.438z M61.438,96.472v-0.176c0,0.176,0,0.176-0.176,0.176
		c0.176,0,0.176,0,0.176,0.175V96.472z M61.964,99.98c0-1.053-0.176-1.754-0.526-2.281C61.262,98.401,61.087,99.279,61.964,99.98z
		 M61.964,109.983c0,1.228,0.176,2.456,0.702,3.685c0.351-0.176,0.526-0.351,0.526-0.702c0-1.403-0.176-2.808-0.176-4.211
		C62.314,108.93,61.964,109.281,61.964,109.983z M65.122,115.599l-0.526-0.526c-0.175,1.579,0,2.632,0.702,3.509
		C65.474,117.354,65.298,116.3,65.122,115.599z M67.755,119.634c-0.176-0.175-0.176-0.175-0.176-0.175c0,0.175,0,0.175,0.176,0.351
		V119.634z M69.51,119.459c0,0.877-0.176,1.755-0.176,2.632c0,0.702,0.351,1.053,1.053,1.053c0.526,0,0.702-0.351,0.702-0.877
		c0-1.229-0.176-1.931-0.352-2.808C70.211,119.283,69.685,119.283,69.51,119.459z M72.492,119.459v0.701
		c0.176,0.878,0.702,1.404,1.404,1.404c0.526,0,0.351,0.526,0.877,0.702c0.702-0.702,1.229-1.579,1.579-2.633
		C74.773,119.283,73.37,119.283,72.492,119.459z"/>
</g>
</svg>
