<?xml version="1.0" encoding="utf-8"?>
<!-- Generator: Adobe Illustrator 16.0.0, SVG Export Plug-In . SVG Version: 6.00 Build 0)  -->
<!DOCTYPE svg PUBLIC "-//W3C//DTD SVG 1.1//EN" "http://www.w3.org/Graphics/SVG/1.1/DTD/svg11.dtd">
<svg version="1.1" id="Layer_1" xmlns="http://www.w3.org/2000/svg" xmlns:xlink="http://www.w3.org/1999/xlink" x="0px" y="0px"
	 width="99.5px" height="144px" viewBox="0 0 99.5 144" enable-background="new 0 0 99.5 144" xml:space="preserve">
<g enable-background="new    ">
	<path fill="#FFFFFF" d="M25.64,123.846c0-1.404,0-2.808-0.176-4.212c-0.175-0.351-0.175-0.877-0.175-1.579
		c0-2.632-0.351-4.737-0.526-7.019c-0.175-1.053-0.175-2.106,0-3.159c0.175-0.526,0-0.526,0-1.053
		c-0.526-2.982-0.526-5.966-0.351-9.3c0-2.105-0.175-4.212-0.175-6.317v-4.036l-0.351-5.439c0-1.229-0.175-1.931-0.175-2.808
		c-0.176-1.404,0-2.808-0.527-4.212v-0.526v-7.721c0-0.702,0-1.229-0.175-1.579c-0.175-1.755-0.175-3.685,0-5.615
		c0.175-0.526,0-1.229,0-1.931c0-2.807-0.175-5.439-0.175-8.071c0-1.229-0.351-1.755-0.176-2.983
		c0.526-0.877,0.176-1.755,0.351-2.983v-1.404c-0.526-1.93-0.175-3.685-0.175-5.615v-5.615v-1.053c0-0.527-0.176-1.053-0.351-1.229
		c-0.526-0.526-0.702-1.229-0.175-1.755c0.877-0.877,1.228-1.93,1.404-2.983c0.175-0.702,0.702-1.229,1.579-1.755
		c1.229-0.526,1.93-1.229,2.632-2.106c0.526-0.175,0.351-0.351,0.877-0.877c0.527-0.526,1.053-0.702,1.58-0.526
		c0.526,0.175,0.702,0,1.228,0c1.931-0.527,3.861-0.702,5.966-1.229c2.808-0.526,5.615-0.877,8.423-0.877
		c1.58,0,2.983-0.175,4.562-0.351c3.334-0.175,6.844-0.175,10.178,0.702l4.738,1.579c0.175,0,0.175,0,0.175,0.176l2.633,2.281
		c1.229,1.404,1.755,2.983,2.281,4.562l1.579,7.896c0.526,1.229,0.351,2.632,0.351,4.036c0.176,1.228,0.526,2.632,0.526,3.86
		l0.352,5.791v1.229c0.526,2.632-0.526,5.089-1.755,7.194c-0.878,1.579-1.755,2.983-3.159,3.86
		c-1.228,0.702-2.105,1.229-3.334,1.755c-0.526,0.176-0.877,0.526-1.228,0.702c0.701,0.176,1.228,0.351,1.403,0.351l1.229,0.526
		l1.053,0.526c1.931,0.526,2.983,1.58,4.211,2.808c0.878,0.526,1.404,1.229,1.58,1.931c1.228,3.334,2.632,6.844,2.808,10.528
		c0.701,2.632,0.701,4.738,0.877,7.37c0,3.334-0.176,6.492-0.702,9.125c-0.175,1.579-0.526,3.334-1.403,5.089
		c0,0.175-0.176,0.351-0.176,0.526c0.526,1.403-0.351,2.982-0.526,4.387c-0.351,2.632-1.403,4.562-2.983,5.966
		c-1.93,1.404-3.158,2.983-5.089,4.388l-1.754,1.403c-1.054,0.526-1.931,1.229-2.808,1.755c-1.931,1.229-4.212,1.93-6.844,2.281
		c-2.281,0.526-4.563,0.526-6.844,1.053c-1.404,0.526-2.808,0.702-4.387,1.229c-1.404,0.526-3.159,1.053-5.089,1.229
		c-0.877,0-1.579,0.175-2.808,0.351c-1.229,0.526-2.632,0.702-4.036,0.702c-1.228,0-1.754,0-2.983,0.175
		c-0.877,0-1.93-0.175-2.983-0.526V123.846z M25.289,46.812c-0.175-0.526-0.175-0.877-0.877-1.404
		C24.587,46.636,24.587,46.285,25.289,46.812z M24.938,69.623c0.176-0.526,0.176-1.228-0.175-2.105
		C24.587,68.746,24.412,68.746,24.938,69.623z M24.587,36.458v1.404c0,0.526,0.526,1.053,1.403,1.229
		c-0.175-0.526-0.351-0.702-0.351-0.877c-0.176-0.702-0.526-1.229-0.702-1.755H24.587z M24.938,40.319
		c-0.526,0.877-0.351,1.404,0.176,2.106l1.404,3.159l1.228,3.334c0.176,0.351,0.351,0.526,0.526,0.526v-4.562v-0.526
		c-0.702-1.229-1.053-2.281-2.281-3.159L24.938,40.319z M25.289,53.129c0-0.176,0-0.351-0.175-0.526
		c-0.176-0.176-0.176-0.176-0.176,0c-0.175,0.175-0.175,0.175-0.175,0.175c0,0.175,0,0.351,0.175,0.526h0.351V53.129z
		 M24.763,59.095h0.175c-0.175,0-0.175,0-0.175-0.175V59.095z M25.815,79.626c0.175-0.176,0.175-0.352,0.175-0.526
		c0-0.878,0-1.58-0.175-2.106c-0.175-1.93-0.526-3.86-0.526-5.79c-0.175-0.176-0.175-0.352-0.175-0.352
		c-0.176,0.176-0.351,0.176-0.351,0.176c0.175,2.983,0.175,5.791,0.702,8.599H25.815z M27.219,51.9
		c-0.526-0.877-0.351-1.755-1.579-2.281c-0.176,0.702,0.351,1.053,0.526,1.58c0.175,0.351,0.526,0.877,0.702,1.579
		c0.527,0.526,0.176,1.053,0.702,1.579c0.175,0.527,0.175,1.229,1.053,1.755c-0.175-1.404,0.175-2.633-0.351-3.861L27.219,51.9z
		 M28.448,32.072c-1.053,0-1.58-0.351-1.755-1.229c-0.175-0.526-0.351-0.526-0.877-1.053c0.175,1.579,1.053,4.387,2.281,5.791h0.351
		V32.072z M28.448,59.095c-0.702,0-1.229-0.526-1.58-1.403c-0.175-0.526-0.526-0.878-0.877-1.229
		c-0.175,1.229,0.527,1.93,0.702,2.808c0.526,1.403,0.526,2.983,1.755,4.211V59.095z M25.991,82.784l0.351,4.212l0.526,3.158
		c0.176-0.176,0.176-0.526,0.176-0.877l-0.526-5.967c0-0.526-0.176-0.526-0.176-0.702C26.167,82.608,26.167,82.784,25.991,82.784z
		 M25.991,97.524h0.351c-0.175-0.176-0.175-0.176-0.175-0.352C25.991,97.349,25.991,97.349,25.991,97.524z M26.167,103.842
		c0.175,0.351,0.175,0.701,0.175,1.228v4.562l0.351,3.686v2.632c0.175,1.579,0.351,3.158,0.351,5.089
		c0.175,0.702,0,1.579,0.526,2.281c0.702,0,1.404,0.176,2.105,0.176c0.176,0,0.527-0.176,1.053-0.526
		c-0.702-0.176-1.053-0.352-1.053-0.352c-0.526,0-1.053-0.351-1.228-0.877l-0.351-1.229l-0.351-3.158
		c-0.175-2.106-0.351-4.212-0.877-6.317c-0.175-1.931-0.175-3.334-0.175-5.265c0.175-1.93,0.175-3.86-0.526-5.791
		C25.991,101.209,25.991,102.613,26.167,103.842z M27.044,23.473c0.702,0.877,1.228,1.58,1.404,2.106
		c0.351,0.526,0.175,1.053-0.702,1.229c-0.175,0.175-0.526,0-0.702,0.526l0.702,2.105c0.176,0.351,0.526,0.526,0.702,0.351
		c0-2.281,0.702-4.562,0.175-7.195C27.921,22.596,27.395,22.947,27.044,23.473z M27.746,77.169c-0.351,0.351-0.351,0.878,0,1.404
		V77.169z M28.272,39.792c0.176-0.702,0.526-1.053-0.702-1.579L28.272,39.792z M28.097,67.167c0.175,1.579,0.526,3.158,0,4.737
		c0,0.702,0.175,1.229,0.702,1.755c0-2.281,0.176-4.562-0.351-6.843C28.272,66.991,28.097,67.167,28.097,67.167z M28.448,85.592
		c0,0.526-0.351,1.053,0.175,1.579c0.351-1.579,0.175-2.632-0.351-3.158C28.272,84.715,28.448,85.065,28.448,85.592z M28.798,95.945
		c0.176,0.175,0.176,0.701,0.176,1.228C29.5,95.945,29.325,96.12,28.798,95.945z M29.325,100.858H29.5
		c-0.175-0.176-0.175-0.351-0.175-0.351V100.858z M29.325,105.947v0.176H29.5L29.325,105.947z M60.56,61.376
		c0.176-0.351,0.352-0.526,0.878-0.526c0.877-0.526,1.579-0.702,2.808-1.229s2.105-0.877,3.334-1.755
		c1.403-1.228,2.457-2.807,3.158-4.387c0.702-1.579,1.053-2.983,1.053-4.562c-0.175-2.632,0.176-5.264-0.351-7.896l-0.526-4.211
		c-0.176-1.579,0-3.159-0.526-4.738l-1.579-6.493c-0.526-2.632-2.281-3.86-3.86-5.791c-0.176-0.175-0.352-0.175-0.526-0.175
		l-5.089-1.579c-2.633-0.526-5.44-0.526-8.072-0.351l-6.142,0.351c-0.877,0-1.579,0-2.105,0.175
		c-2.106,0.176-4.211,0.351-6.493,0.877c-1.93,0.526-3.685,0.526-5.264,1.053c-0.702,1.229-0.702,1.053-0.702,2.281v2.106
		l-0.351,6.142v4.738c0,1.93,0.351,3.334-0.176,4.913c0.176,1.404,0,2.632,0,4.036c0.526,4.914,0.176,10.002,0.176,15.091
		c0.175,4.211,0,8.423,0.175,12.634c0.175,0.526,0,0.526,0,1.053v1.229c0,2.281,0.175,4.387,0.175,6.492
		c0,2.633-0.526,4.914,0,7.195c0.176,0.526,0.176,1.053,0.176,1.93c-0.176,0.878-0.176,1.755,0,2.633
		c0.175,1.228,0.351,2.281,0.175,3.509c-0.175,2.281,0.526,4.388,0,6.668c0,0.176,0.175,0.352,0.175,0.526
		c0,0.702,0.176,1.404,0.176,1.931v3.86c0.175,2.105,0.702,4.036,0.175,6.142c-0.175,0.526,0,0.878,0,1.404
		c0.526-0.176,0.877-0.526,1.404-0.526c1.229,0.175,1.755-0.176,2.983-0.176c0.702,0,1.403,0.351,2.105-0.176
		c0.175-0.175,0.526-0.175,0.702,0c1.93,0.702,3.334-0.351,5.264-0.175h0.175c0.526-0.526,1.404-0.352,2.106-0.526
		c0.526,0,1.053-0.176,1.754-0.352l5.265-1.229l5.439-1.403c0.877-0.176,1.579-0.526,2.457-1.053
		c1.93-0.702,3.509-1.404,4.913-2.808c0.702-0.702,1.403-1.404,2.281-1.931c1.755-1.403,3.158-2.983,4.211-4.913
		c1.579-2.632,2.105-5.439,2.633-8.423c0.175-2.632,0.351-5.265,0.175-7.896c0-1.579,0.176-3.158-0.351-4.738
		c-0.526-0.877-0.352-1.754-0.526-2.982c-0.352-2.633-1.229-5.265-2.457-8.072c-0.877-2.105-2.456-3.158-4.387-4.387
		c-1.931-0.878-3.86-1.404-6.142-1.931c-0.526,0-1.053-0.351-1.404-1.053C60.209,61.728,60.033,61.552,60.56,61.376z
		 M30.904,119.985c0.526,1.229,0.526,1.053,1.404,0.877v-1.229c0-0.175,0.175-0.701,0.351-1.403
		c-0.176-0.176-0.526-0.176-1.053-0.176c0,0.526,0,1.053,0.176,1.229L30.904,119.985z M32.308,123.319
		c1.579-0.526,2.983-0.351,4.562-0.878c0.526,0,1.228-0.175,2.105-0.351l3.159-0.526l0.351-0.351
		c-0.702-0.526-1.229-0.702-2.106-0.526c-0.877,0.351-1.579,0.351-2.281,0c-0.175-0.176-0.526-0.176-0.877-0.176
		c-1.579,1.579-2.808,2.457-4.738,1.229c-0.175,0.526-0.351,0.877-0.877,1.403C31.782,123.319,32.133,123.319,32.308,123.319z
		 M35.993,119.283c0.702-0.877,0.526-0.702,0.351-1.93c-0.176,0.175-0.702,0.175-1.229,0.175
		C35.642,118.23,35.818,118.757,35.993,119.283z M39.854,117.528c-0.526,0-0.877,0.176-1.053,0.526c0,0.878,0.175,1.229,0.702,1.229
		c0.176,0,0.351,0,0.526-0.176c0.176-0.175,0.176-0.351,0.176-0.351C40.38,118.23,40.205,117.704,39.854,117.528z M41.608,50.672
		c-0.175-1.228-0.351-1.93-0.351-3.158v-0.351c-0.175-2.632-0.526-4.738-0.526-7.37c-0.175-3.334-0.351-6.843-0.351-10.177v-0.527
		c0-0.877,0.351-1.228,1.229-1.228c1.228,0,2.105,0,2.983-0.176c1.93-0.175,3.685,0.176,5.615,0.176c1.229,0,2.106,0,2.632,0.175
		c2.983,0.351,5.265,1.93,6.844,4.914c0.702,1.228,1.229,2.632,1.579,3.86c0,0.702,0.176,1.404,0.176,1.93v2.281
		c0,2.808-0.176,5.44-0.176,8.248c-0.175,1.93-0.877,3.685-2.105,5.088c-0.351,0.351-1.053,0.702-1.931,1.229
		c-1.228,0.701-2.105,1.228-3.509,1.053c-0.526-0.176-0.702,0-1.229,0c-2.808,0.526-5.44,0.351-8.248,0.351
		c-0.702,0-1.58-0.351-2.457-0.877C41.784,54.182,41.608,52.603,41.608,50.672z M41.257,68.922c0.702-0.702,1.579-0.702,2.281-0.702
		c1.579-0.176,2.983-0.526,4.387-0.526c2.808-0.176,5.792-0.351,8.423,0.526l1.579,0.351c2.281,0.878,4.036,2.281,4.562,4.914
		c0.526,1.228,0.702,2.105,0.702,2.632c0.526,2.281,0.351,4.737,0.351,7.019v1.404c0.176,1.229,0.176,2.457,0.176,3.86
		c0.176,1.931-0.176,3.86-0.176,5.966c0,0.878,0.176,1.58-1.053,2.106c0,0-0.176,0.175-0.351,0.351c0,0.176-0.176,0.526-0.352,1.053
		c-0.701,2.281-2.456,3.334-4.562,3.86c-1.93,0.526-3.86,0.878-6.142,1.053c-1.93,0.176-3.159,0.526-5.089,1.054h-2.983
		c-0.526,0-0.702-0.352-0.702-0.878c0-2.632-0.351-5.265-0.351-8.071c0-2.633-0.176-5.089-0.176-7.722V76.993
		c0-0.701,0.176-1.403,0.176-2.105c0-1.053,0-1.755-0.176-2.281L41.257,68.922z M48.979,30.492c0.526-0.175,0.526-0.526,1.053-0.526
		c0.878-0.351,1.229-0.175,1.229,0.702v0.877c-0.176,1.228-0.526,1.93-0.702,2.808l-0.351,1.053c0,0.351,0.176,0.702,0.703,0.877
		c0.526,0.175,0.877,0,1.228-0.351c0.352-0.351,0.527-0.877,0.527-1.404c0.175-1.053,0.526-2.281,1.403-3.685
		c0.176-0.175,0.351-0.351,0.526-0.877l-2.632-0.526c-1.931,0-3.334,0-5.265-0.175c-1.58-0.176-2.983,0-4.387,0.526
		c0,0.526-0.175,0.526-0.175,0.702v3.861h1.229c-0.527-1.229-0.877-1.93-0.351-3.159c0.702-0.526,1.229-0.702,2.105-0.526
		c0.526,0,1.053-0.176,1.404-0.351c0.527-0.526,1.229-0.351,2.106,0.175H48.979z M51.26,55.234c0.877-0.175,1.931-0.175,2.808-0.702
		c0.176-0.702,0.351-1.229,0.176-1.58c0-1.93,0-3.86-0.176-5.791c-0.526-2.632-1.229-4.738-2.457-7.37
		c-1.228-1.93-2.632-2.983-4.562-3.334c-0.527-0.175-1.404-0.175-2.632-0.175c-0.877-0.176-1.58,0-2.106,0.526
		c0,1.229-0.175,1.93-0.175,3.159l0.526,5.439c0.175,2.808,0.702,5.44,0.526,8.072c0,0.702,0.176,1.229,0.526,1.404
		C45.118,55.41,45.82,55.41,51.26,55.234z M43.012,118.581c0.526,0.176,0.702,0,0.351-0.526L43.012,118.581z M43.363,89.277
		c0,2.632,0.175,4.913,0.175,7.545l0.702,5.265c0.877,0.175,1.579,0.175,2.105,0c1.93-0.526,4.037-0.526,6.142-1.053
		c1.93-0.176,3.685-0.526,5.615-1.404c-1.229-0.877-0.702-1.931-0.702-2.808c0-1.229,0.176-1.93,0.176-3.158
		c0-2.633-0.352-4.738-0.878-7.37c0-0.176-0.175-0.352-0.175-0.878c-0.176-0.526-0.526-1.053-1.053-1.93
		c-0.527-0.352-0.878-0.878-1.054-1.755c-0.526-0.878-0.701-1.579-0.877-2.105c-0.351-0.878-0.877-1.579-1.579-2.106
		c-1.229-1.228-2.808-1.403-4.212-1.579c-0.877,0-1.579,0-1.93-0.175c-0.702-0.176-1.404,0-2.281,0.526
		C43.012,80.503,43.188,84.89,43.363,89.277z M43.714,73.835v0.176h0.176c0-0.176,0-0.352-0.176-0.352V73.835z M45.82,120.336
		c-1.229-0.877-1.579-0.176-2.106,0.352C44.241,120.862,44.942,120.688,45.82,120.336z M45.118,69.623
		c-0.702,0.176-1.053,0.702-1.053,1.229c0.176,0.878,0.526,1.755,1.404,2.633c0.175,0,0.175,0.175,0.351,0.175h0.526
		c0-0.175,0.175-0.351,0.175-0.526L45.118,69.623z M47.048,116.651c-0.702,0.175-0.702,0.877-0.877,1.579
		C47.048,117.704,47.048,117.88,47.048,116.651z M48.276,71.904c0,0.878,0.351,1.58,1.229,2.281
		c-0.176-1.228-0.526-1.754-0.526-2.456c-0.176-0.526-0.176-1.229-0.176-2.457h-0.526c-0.175,0.176-0.351,0.176-0.351,0.176
		L48.276,71.904z M50.733,115.599c-1.229,0.701-1.053,1.403-1.58,2.632c0,0.176,0.175,0.351,0.351,0.351
		c0.351,0.352,0.526,0.352,0.526,0c0.878-0.701,1.229-1.755,1.229-2.982H50.733z M51.084,72.432
		c-0.175-0.702,0.176-1.404-0.351-2.106C50.558,71.729,50.558,71.729,51.084,72.432z M54.243,69.623
		c-0.526-0.526-1.229-0.526-2.106-0.351c0,0.526,0.176,0.702,0.176,1.229C53.015,69.975,53.717,70.15,54.243,69.623z M52.312,74.888
		l-0.176,0.176c0.176,0.175,0.352,0.351,0.352,0.351c0.176-0.176,0.176-0.176,0.176-0.351
		C52.488,74.888,52.488,74.888,52.312,74.888z M53.717,114.896l-0.526,1.579c-0.176,0.526-0.176,1.053,0.175,1.579
		c1.229-0.877,1.579-2.105,2.106-3.51L53.717,114.896z M57.577,32.949c-0.526-1.229-0.352-1.053-1.229-1.58
		c-0.702,1.229-1.755,4.211-2.281,5.089c0,0.702,0,1.229,0.526,2.106l1.404-5.089L57.577,32.949z M54.067,74.186h0.351
		c0-0.526,0.352-1.228-0.175-1.93c0,0.526-0.176,0.526-0.176,0.702V74.186z M56.173,80.152c0.176,0,0.176,0,0.352-0.176v-0.702
		v-4.562c0-0.877,0.175-1.579,0.351-2.456c0.176-0.526,0.526-0.878,1.053-1.053c0.702,0,1.053,0.351,1.229,0.877
		c0.176,1.229,0.526,1.755,0.526,2.983c0,2.281,0.176,4.562-0.351,6.844c-0.176,0.526,0,0.877-0.526,1.403
		c-0.526,0.702-0.526,1.579-0.352,2.632l0.526,3.686c0.176,0.702,0,1.403,0.526,2.281c0.176-0.176,0.176-0.526,0.176-0.702
		c0.526-3.334,0.702-6.142,0.702-9.476v-4.738c0-1.053,0.351-1.93,0.877-2.456c-0.702-3.334-2.808-4.914-6.142-4.914
		c0.176,0.702,0.526,1.229,0.702,1.755c0.526,1.404,0.176,4.388-0.526,5.791c-0.176,0.526-0.352,0.351-0.526,0.878L56.173,80.152z
		 M56.173,53.655c0,0.526,0.176,0.702,0.702,0.175c0.176,0,0.351-0.175,0.702-0.526c-0.526-0.351-0.878-1.053-1.053-2.105
		c0-0.877,0-1.58-0.176-2.808c0-0.351-0.176-0.527-0.526-0.702L56.173,53.655z M56.699,45.232c0.176-1.93,0.352-3.334,0.878-4.914
		c0.175-0.877,0.175-1.754-0.352-2.457c-1.403,1.93-1.754,5.089-0.877,7.721C56.524,45.408,56.699,45.232,56.699,45.232z
		 M59.332,113.668c-0.526,0-0.702,0-0.702,0l-1.931,0.526c0.526,0.526,0.526,1.053,0.352,1.755c-0.176,0.526,0,0.877,0.526,1.229
		C58.63,116.125,59.156,114.896,59.332,113.668z M58.104,74.361c-0.526,1.931-0.176,3.86,0,5.791
		C58.806,77.871,58.806,75.59,58.104,74.361z M58.98,38.389c0,0.176,0.176,0.351,0.526,0.702c-0.175-1.58,0.176-3.159-1.053-4.738
		C58.279,35.932,58.279,36.985,58.98,38.389z M59.332,94.365c0,0.702-0.176,1.404-0.176,2.106c-0.176,1.228-0.351,1.053,0.176,1.93
		c1.228-1.229,1.755-2.808,1.755-5.089C60.56,93.488,60.033,93.839,59.332,94.365z M59.683,42.249c-0.176,0.527-0.176,1.053,0,1.58
		V42.249z M60.209,116.826l0.176-0.175l-0.176-0.176c0,0.176,0,0.176-0.176,0.176L60.209,116.826z M61.788,113.492v1.053
		c0.702-0.526,1.229-1.053,1.579-1.93c0-0.526,0.352-0.351-0.175-0.877c-0.526,0.175-0.878,0.351-1.579,0.877
		C61.613,113.142,61.788,113.317,61.788,113.492z M65.122,113.668c0.176,0,0.176-0.176,0.176-0.351l-0.176-0.176
		c-0.175,0-0.351,0.176-0.351,0.351c-0.176,0.176-0.176,0.352-0.176,0.526C64.947,113.844,65.122,113.844,65.122,113.668z
		 M68.105,108.755l1.053,0.351c0.702,0.526,0.702,0.352,1.404-0.526C68.982,107.351,68.982,107.526,68.105,108.755z"/>
</g>
</svg>
