<?xml version="1.0" encoding="utf-8"?>
<!-- Generator: Adobe Illustrator 16.0.0, SVG Export Plug-In . SVG Version: 6.00 Build 0)  -->
<!DOCTYPE svg PUBLIC "-//W3C//DTD SVG 1.1//EN" "http://www.w3.org/Graphics/SVG/1.1/DTD/svg11.dtd">
<svg version="1.1" id="Layer_1" xmlns="http://www.w3.org/2000/svg" xmlns:xlink="http://www.w3.org/1999/xlink" x="0px" y="0px"
	 width="618.167px" height="230.75px" viewBox="0 -50.917 618.167 230.75" enable-background="new 0 -50.917 618.167 230.75"
	 xml:space="preserve">
<path fill="#231F20" d="M613.583,159.772c0,5.326-3.224,9.645-7.2,9.645h-595.6c-3.977,0-7.2-4.318-7.2-9.645V-36.605
	c0-5.327,3.224-9.645,7.2-9.645h595.6c3.977,0,7.2,4.318,7.2,9.645V159.772z"/>
<path fill="none" stroke="#241F21" stroke-width="3.7285" stroke-linecap="round" stroke-linejoin="round" stroke-miterlimit="10" stroke-dasharray="0,14.3834" d="
	M23.127,157.299c0,2.393,1.317,4.541,3.41,6.017"/>
<path fill="none" stroke="#241F21" stroke-width="3.7285" stroke-linecap="round" stroke-linejoin="round" stroke-miterlimit="10" stroke-dasharray="0,14.3834" d="
	M33.317,45.455c-2.604,0-4.979,0.772-6.78,2.042"/>
<line fill="none" stroke="#FFFFFF" stroke-width="4" stroke-linecap="round" stroke-linejoin="round" stroke-dasharray="0,12.2805" x1="13.83" y1="-25.178" x2="13.83" y2="156.5"/>
<line fill="none" stroke="#FFFFFF" stroke-width="4" stroke-linecap="round" stroke-linejoin="round" stroke-dasharray="0,10.5183" x1="14.917" y1="162" x2="604.582" y2="162"/>
<line fill="none" stroke="#FFFFFF" stroke-width="4" stroke-linecap="round" stroke-linejoin="round" stroke-dasharray="0,10.5183" x1="14.917" y1="-39" x2="604.582" y2="-39"/>
<line fill="none" stroke="#FFFFFF" stroke-width="4" stroke-linecap="round" stroke-linejoin="round" stroke-dasharray="0,12.2805" x1="603.849" y1="148.841" x2="603.849" y2="-32.836"/>
</svg>
