<?xml version="1.0" encoding="utf-8"?>
<!-- Generator: Adobe Illustrator 16.0.0, SVG Export Plug-In . SVG Version: 6.00 Build 0)  -->
<!DOCTYPE svg PUBLIC "-//W3C//DTD SVG 1.1//EN" "http://www.w3.org/Graphics/SVG/1.1/DTD/svg11.dtd">
<svg version="1.1" id="Layer_1" xmlns="http://www.w3.org/2000/svg" xmlns:xlink="http://www.w3.org/1999/xlink" x="0px" y="0px"
	 width="99.5px" height="144px" viewBox="0 0 99.5 144" enable-background="new 0 0 99.5 144" xml:space="preserve">
<g enable-background="new    ">
	<path fill="#FFFFFF" d="M24.061,116.826c-0.526-3.334-0.175-6.668-0.351-10.002c0-0.877-0.176-1.755-0.176-2.632
		c-0.175-1.931-0.175-3.685-0.175-5.615c-0.526-3.334-0.702-5.966-0.877-9.3c-0.175-0.527-0.175-1.404-0.175-2.633
		c0-2.105-0.176-4.036-0.176-5.966v-4.036c0-1.931,0.176-3.685,0.176-5.615v-9.3c0-0.878,0.175-1.755,0.351-2.983
		c0-1.579,0.176-3.334,0.176-4.914v-6.317c0-2.632,0.175-4.914,0.175-7.545c0-0.176,0.175-0.527,0.175-0.702
		c-0.526-2.632,0.176-5.089,0.351-7.721c0-1.93,0.351-3.51-0.175-5.44l1.053-1.053c0.702-0.526,1.229-0.877,1.404-1.229
		c1.229-1.579,2.808-2.808,4.387-4.036l2.281-1.93c2.106-0.526,4.211-0.702,6.317-1.228c2.105-0.526,4.387-0.526,6.493-1.053
		c0.702,0,1.579-0.176,2.457-0.351h1.755c2.983-0.176,5.791-0.176,8.774,0l4.387,0.702c0.175,0.176,0.175,0.176,0.351,0.176
		c2.808,0.526,4.913,1.754,7.194,3.158c0.878,0.526,1.579,1.229,2.106,1.755c1.579,2.106,3.158,4.036,4.387,6.142l2.281,4.562
		c0.526,1.229,0.701,1.93,0.877,3.159c0.176,1.404,0.526,2.632,0.526,4.036c-0.176,1.404,0.176,2.983,0.352,4.387
		c0.526,3.334,0.526,5.966,1.053,9.3v0.351c0,4.212,0.526,8.423,0,12.635c-0.176,0.877,0,1.755,0,2.982
		c0,1.404,0.175,2.983,0.175,4.388c0,2.632,0,4.737-0.175,7.369c0,2.808-0.176,5.791,0,8.599c0.175,0.878,0,1.579,0,2.457
		c-0.176,2.632-0.176,5.089-0.702,7.721c-0.526,2.281-1.053,4.562-1.931,6.844L78.634,107c-1.229,1.579-1.93,3.334-3.509,4.738
		c-0.176,0.175-0.352,0.526-0.352,0.877c-0.176,0.877-0.702,1.403-1.229,2.105c-1.228,0.878-1.755,1.755-2.456,2.983
		c-0.526,0.877-1.053,1.579-1.931,2.105c-2.632,2.105-5.264,4.387-8.599,5.265c-0.526,0.175-0.877,0.351-1.053,0.351
		c-3.509,1.229-6.843,2.281-10.353,2.808c-0.877,0.176-1.755,0.352-2.808,0.878c-2.105,0.526-4.211,0.877-6.493,0.701
		c-2.632,0-5.264-0.175-7.896-0.526h-2.105c-1.93-0.175-3.334-0.701-4.562-1.755C24.763,123.846,24.587,120.336,24.061,116.826z
		 M24.412,64.71c-0.526,0.878-0.702,1.579-0.526,2.457c0.175,0.526,0.175,1.229,0.175,2.281c-0.175,1.579-0.351,2.983-0.351,4.913
		v7.37c0,0.526,0.175,0.526,0.175,1.053c0.526-0.702,0.351-1.403,0.526-2.105c0.526-1.931,0.176-1.579,1.579-2.808L24.412,64.71z
		 M24.061,84.188c0-0.176,0-0.176-0.175-0.176v0.351L24.061,84.188z M24.236,86.82v0.176v0.175v-0.175V86.82z M24.236,88.75v0.176
		h0.175c0-0.176-0.175-0.176-0.175-0.351V88.75z M25.464,51.374c0.176,0,0.176,0.702,0.702,0.175
		c-0.702-0.877-0.526-2.105-1.755-2.983c0,1.053,0,1.93,0.176,2.457L25.464,51.374z M24.587,54.708
		c0.526-0.175,0.351-0.702-0.176-1.229C24.412,54.006,24.587,54.182,24.587,54.708z M24.412,90.505
		c0.176,0.352,0.176,0.878,0.176,1.404h0.175c0-0.526,0-1.053-0.175-1.404H24.412z M31.08,56.287V48.04
		c0-0.176-0.175-0.526-0.351-1.053l-2.106-4.211c-0.526-1.229-1.053-2.106-1.755-2.983l-1.404-1.404l-0.702-0.702
		c0,0.877,0,1.579,0.175,1.93l1.58,5.615l1.579,3.509c0.877,0.527,0.877,1.58,1.404,2.281c0.702,0.877,0.877,1.93,0.526,3.159
		c-0.526,1.229,0.176,2.105,0.702,3.334C30.904,56.813,31.08,56.463,31.08,56.287z M24.938,93.488c-0.175,1.053-0.175,2.105,0,3.158
		C25.464,95.419,25.114,94.717,24.938,93.488z M25.114,101.911c0,0.176,0,0.176,0.175,0.176h0.526
		c-0.175-1.404-0.351-2.633-0.351-4.212C24.763,99.279,24.587,100.683,25.114,101.911z M25.289,33.3
		c-1.229,2.106,0.175,3.51,1.579,4.914C26.342,36.283,26.167,34.879,25.289,33.3z M25.289,26.457c0,0.526,0,0.702,0.175,0.877
		c0.351,0.351,0.702,0.526,1.229,0.351c0-0.877-0.175-1.579-0.175-2.281C25.991,25.579,25.464,25.93,25.289,26.457z M25.289,57.866
		v0.702l0.351,0.352c0.351,0,0.526-0.176,0.526-0.352c-0.176-0.702,0-1.403-0.526-2.632C25.464,56.813,25.289,57.34,25.289,57.866z
		 M25.289,106.123h0.175v-0.702h-0.175V106.123z M27.57,118.757c-0.526-1.403-0.702-2.632-0.877-4.036
		c-0.526-1.403-0.526-2.632-1.053-4.036c-0.176,0.352-0.176,0.878-0.176,1.58l2.106,9.124c0.175,0.702,0.526,1.229,1.053,1.404
		C28.623,121.389,28.097,120.16,27.57,118.757z M26.342,61.902c0-0.175-0.175-0.351-0.351-0.526
		c-0.175,0.176-0.175,0.526-0.175,0.878c0,2.808,0.351,5.439,0.877,8.071c0,0.526,0.175,0.526,0.175,1.053
		C27.395,69.975,26.693,62.604,26.342,61.902z M31.08,37.511c-1.228-0.526-1.228-1.053-1.754-1.93l-1.404-3.86
		c-0.176-0.526-0.526-1.053-1.053-1.579c0,0-0.175-0.176-0.702-0.351c0.175,0.526,0.175,0.877,0.175,1.404
		c1.229,2.808,1.93,5.791,2.808,8.598c0.176,0.877,0.877,1.93,1.93,2.983C31.08,40.846,31.606,39.441,31.08,37.511z M26.518,122.441
		c-0.351,0.527-0.351,0.702,0,0.878c-0.176,0.877,0,1.755,0.526,2.983c1.754,1.228,3.509,1.579,5.439,1.053l-0.175-0.352
		c-0.877,0.352-1.579,0-2.105-1.229c-0.176-0.526-0.527-0.526-0.702-1.053h-0.702c-0.877,0.176-1.403,0-1.579-0.877
		c-0.175-0.351-0.526-0.526-0.702-0.526V122.441z M26.868,80.854c0,1.229,0,2.106,0.176,2.633c0.175,0.351,0.175,1.053,0.175,1.93
		c0,0.702,0,1.58,0.176,2.281c0.175,0.526,0.175,1.229,0.175,2.106c0.175,1.93,0.351,3.509,1.228,5.439c0,0,0.176,0.176,0.527,0.526
		v-1.755c-0.176-2.632-0.176-4.737-0.176-7.37c0-0.526,0.176-1.229,0-1.755c-0.526-1.579-1.053-2.808-1.93-4.211
		C27.044,80.854,26.868,80.854,26.868,80.854z M27.395,24.175v0.351h1.228c0-0.526,0-1.053-0.175-1.229
		C27.921,23.473,27.57,23.649,27.395,24.175z M28.448,98.401c-0.176,1.931,0,3.686,0.877,5.44
		C29.149,101.911,29.149,100.332,28.448,98.401z M31.255,31.545c-0.526-0.176-1.053-0.527-1.229-1.404l-0.702-2.106l-0.877-1.228
		c0,2.457,0.877,4.562,2.632,6.317C31.431,32.598,31.431,32.072,31.255,31.545z M28.798,58.744c0-0.176,0-0.176,0-0.176
		c0-0.176,0-0.176-0.175-0.176v-0.526c-0.175,0-0.175,0-0.175-0.175c0,0.175,0,0.175,0,0.175c0.175,0.176,0.175,0.352,0.175,0.352
		C28.798,58.393,28.798,58.568,28.798,58.744z M31.431,71.904c0-1.228,0-2.281-0.175-3.509c0-1.053-0.176-1.755-0.526-2.106
		c-0.526-0.701-1.053-1.579-1.404-2.808l-0.527-1.228c-0.175,0.351-0.175,0.701-0.175,0.877c0.702,1.404,0.702,2.808,0.702,4.212
		c0,0.526,0.175,1.053,0.351,1.754c0.527,1.229,0.702,2.106,1.229,2.983c0,0.176,0.175,0.176,0.351,0.176
		C31.431,72.08,31.431,72.08,31.431,71.904z M29.149,81.731c0.176-0.526,0-0.878-0.351-1.229
		C28.798,81.029,28.974,81.381,29.149,81.731z M30.203,76.643c0.526-1.229-0.176-2.105-0.176-3.334
		C29.5,75.238,29.5,75.414,30.203,76.643z M31.957,20.49c-1.579,0.702-1.579,0.526-2.105,1.755c0.702,0,1.053-1.229,1.754-0.351
		C31.957,21.543,32.133,21.017,31.957,20.49z M32.308,108.403c0-1.403-0.175-2.808-0.175-4.387c0-0.702-0.176-1.403-0.176-2.105
		c-0.175-2.632-0.351-5.089-0.351-7.721c-0.175-0.878-0.175-1.755-0.175-2.457l-0.175-0.176c-0.176,0-0.176,0-0.176-0.175
		c-0.175,0-0.351,0.175-0.351,0.351c-0.176,0.176-0.176,0.526-0.176,1.053c0.176,1.229,0.351,2.106,0.351,3.334
		c0,2.633,0.175,5.089,0.175,7.722c0,0.526,0,0.877-0.175,1.053c0,0.351-0.175,0.877-0.351,1.579c0,0.702-0.175,1.229-0.351,1.403
		c-0.176,0.526-0.176,0.878,0,1.229c0.526,1.579,1.228,2.983,1.93,4.387C32.483,111.913,32.483,110.334,32.308,108.403z
		 M31.431,25.579c0-0.702-0.351-1.053-0.877-1.229c-0.526,1.229,0.176,2.281,0.176,3.51c0.175,0.351,0.526,0.526,0.702,0.702
		C31.606,27.685,31.606,26.632,31.431,25.579z M30.904,63.657c0.351-0.877,0.175-1.229-0.526-1.403
		C30.553,62.429,30.729,62.955,30.904,63.657z M31.782,125.249c-0.176-1.228-0.877-1.93-0.877-3.158c0,0-0.175-0.176-0.351-0.351
		C30.378,122.969,30.904,124.021,31.782,125.249z M31.255,80.679h-0.351c-0.526,0.702-0.351,1.579,0.526,2.456
		C31.431,82.258,31.255,81.556,31.255,80.679z M31.606,118.406c0-1.229-0.351-2.633-0.877-4.212
		C30.553,115.773,30.729,117.178,31.606,118.406z M35.642,117.354c0.176,0.175,0.351,0.351,0.351,0.526
		c0.351,0.701,0.877,1.053,1.755,1.228l6.843,0.702c1.229,0,2.106-0.176,3.334-0.176c0.702,0,1.404-0.175,2.106-0.175
		c1.229,0,1.931,0,3.159-0.176c3.509-0.877,6.843-1.403,10.177-2.632c1.404-0.526,2.633-0.702,3.861-1.404
		c2.632-1.229,4.737-2.632,6.668-4.562c1.93-1.755,3.158-3.685,3.86-5.79c0-0.176,0.176-0.526,0.351-1.053
		c0.878-2.633,1.579-4.914,1.755-7.546c0.176-3.334,0.351-6.492,0.351-9.827v-5.966c0-0.702,0.176-1.403,0.176-2.105
		c0-2.632-0.176-4.913-0.176-7.546v-9.3c0-0.878,0.176-1.579,0.176-2.281c-0.176-2.632,0-5.089-0.526-7.721
		c0-1.93-0.176-3.334-0.351-5.264c-0.526-1.93-0.526-3.86-0.702-5.966c-0.176-2.632-0.702-4.913-1.229-6.843
		c-0.702-2.281-1.93-4.562-3.158-6.493c-0.878-1.404-1.931-2.457-2.633-3.685c-1.228-1.579-2.632-2.983-4.562-3.86l-1.404-0.702
		l-5.615-1.579c-0.176-0.176-0.351-0.176-0.877-0.176c-4.738,0-9.125-0.351-13.863,0.351c-2.632,0.526-4.913,0.702-7.545,1.229
		l-2.808,0.526c-0.702,0.175-1.229,0.526-1.404,1.404v0.526c-0.175,2.281-0.526,4.562-0.526,6.844l-0.351,14.389v4.212v4.562v8.423
		v2.456c0,1.404,0.351,2.983,0.176,4.387c-0.176,1.404,0,2.808,0,4.212c0.175,0.877,0,1.579,0,2.808v1.053
		c0,1.931,0,3.51,0.175,5.439v6.844c0,2.105-0.175,4.212,0,6.317l0.351,4.387c0,0.526-0.176,1.229-0.176,1.931v1.755
		c0,1.228,0.176,2.105,0.176,3.334c0,0.701,0,1.228,0.175,1.579c0.526,1.93,0.351,3.334,0.351,4.913c0,1.931,0,3.334,0.175,5.265
		c0,0.526,0.175,0.526,0.175,1.053c0.176,0.176,0.176,0.176,0.351,0.176H35.642z M33.361,122.267c0.702,0.175,1.229,0.175,1.58,0
		c0-1.229-0.702-2.106-1.404-2.983C33.01,119.81,32.834,120.16,33.361,122.267z M33.186,124.196
		c0.175,0.526,0.351,1.404,0.877,2.633c0,0.175,0.175,0.351,0.351,0.526c0.527,0.526,0.877,0.351,1.053-0.352
		c0.175-0.877,0.526-1.579,0-2.808C34.589,124.021,33.712,124.021,33.186,124.196z M37.397,122.267
		c0.702-0.176,1.053-0.352,1.229-0.352c0.526,0,0.526-0.175,1.053-0.175v-0.176c0-0.176,0.175-0.176,0.175-0.351
		c-0.175-0.176-0.175-0.176-0.351-0.176c-0.877-0.176-1.754-0.351-2.457-0.176L37.397,122.267z M37.221,127.355l-0.175,0.175
		l0.351,0.526c0,0,0.175-0.175,0.351-0.351C37.572,127.53,37.397,127.355,37.221,127.355z M38.45,125.951
		c0.176,0.176,0.176,0.526,0.702,0.702c0.526,0.526,1.053,0.351,1.579-0.351c0.351-0.527,0.351-1.054,0.175-1.755
		c0-0.352-0.175-0.526-0.526-0.526c-1.228,0-1.93-0.352-2.808,0.175C37.572,124.898,37.923,125.425,38.45,125.951z M46.697,125.601
		c-1.58,1.229-1.58,1.403-4.211,0.877l-0.526,0.702l-0.702,0.877c1.93,0,4.562-0.526,6.493-1.228
		c0.351-0.176,0.526-0.352,0.351-0.526L46.697,125.601z M44.416,122.617l-0.526-1.229c-0.176-0.175-0.702-0.175-1.229-0.175
		c0,0.526-0.175,0.877,0.351,1.403H44.416z M42.836,124.021l0.877,1.053h0.877c0.351-0.176,0.526-0.702,0.351-1.229
		C44.241,123.846,43.539,124.021,42.836,124.021z M45.469,97.875c0-2.632,0.175-5.264,0-7.896c0-1.579-0.175-3.158-0.175-5.089
		c0-0.701-0.176-1.403-0.176-2.281v-9.476v-6.316c-0.175-1.404,0-2.983-0.175-4.388v-4.562c-0.175-1.93-0.175-3.86-0.175-5.79
		c0-2.106-0.176-4.387-0.176-6.493c0-1.58,0-3.334,0.176-4.914c0-1.229,0.175-2.105,0-3.334c-0.176-0.175-0.176-0.351,0-0.526
		c0.526-0.877,0.351-1.93,0.351-2.808V31.37c0-1.228,0-2.281-0.175-3.509c0-0.877,0.351-1.404,1.229-1.229
		c1.579,0.526,2.983,0.176,4.387,0.176c0.878,0,1.755-0.351,2.633,0.175c1.579,0.526,2.982,0.702,4.562,1.228
		c0.702,0.527,1.58,0.527,2.281,1.053c0.878,0.526,1.58,1.053,2.106,1.579c1.93,1.93,2.808,4.211,3.685,6.493
		c0.702,1.404,1.053,2.983,1.579,4.562c0.176,0.175,0.176,0.351,0.176,0.702c-0.176,1.93,0.526,3.51,0.526,5.44
		c0,1.404,0.176,2.632,0.176,4.036c0.175,1.579,0.351,3.158,0.351,4.737c0,1.229-0.176,2.281-0.351,3.51
		c-0.176,2.105-0.352,4.212-0.176,6.317c0,2.632-0.176,4.562-0.176,7.194l-0.351,7.37c0,1.229-0.351,2.281-0.351,3.51
		c-0.176,0.351-0.176,0.877-0.176,1.754c0.526,2.106-0.176,4.036-0.176,6.143c0,0.526-0.175,0.877-0.175,1.403
		c0.175,0.702,0,1.404-0.352,1.931c-0.526,0.701-0.877,1.403-1.053,2.105c-0.526,2.281-1.579,4.036-2.983,5.966
		c-0.877,1.229-1.93,2.106-3.334,2.808l-0.877,0.352c-1.579,0.526-2.983,0.526-4.562,0.701c-1.404,0-2.632,0.176-4.036,0.176
		c-0.526,0-1.404-0.176-2.632-0.351c-0.526-0.176-0.877-0.526-0.877-1.229c-0.175-2.808-0.351-5.791-0.351-8.599H45.469z
		 M46.521,39.091l-0.351,5.966c0,0.527,0.175,1.229,0.175,1.755c0.175,2.983,0.175,5.791,0.175,8.774v8.598
		c0,0.702,0,1.229,0.176,1.755c0,2.632,0.175,5.265,0.175,7.896c0,1.403-0.175,2.808-0.175,4.212c0,1.403,0,2.807,0.175,4.211
		c0,2.281-0.175,4.562,0.351,7.194c0.175,1.229,0.351,2.105,0.175,3.334c-0.175,1.229-0.175,2.106-0.175,3.334
		c0,2.633,0.175,5.265,0.175,7.896c0,0.702,0.176,1.229,0.351,1.931c0.877,0.351,1.755,0.526,2.457,0.351
		c1.58,0,2.984-0.175,4.563-0.175c1.579-0.176,2.982-0.702,4.387-1.58c0.176-1.229,0.526-1.93,0.526-3.158v-2.808
		c-0.176-2.632,0-4.562,0.176-7.194v-1.579l-0.702-6.844c0-1.931,0-3.51-0.176-5.44c0-2.281-0.175-4.387-0.526-6.492
		c-0.351-1.755-0.526-3.51-0.526-5.439l-0.351-5.967c-0.526-4.035-1.404-7.545-2.983-11.055l-0.351-1.229
		c-0.878-2.105-1.579-4.036-2.808-5.966c-0.878-1.229-1.931-2.106-2.808-2.632c-0.526-0.351-1.229-0.526-1.93-0.351
		C46.521,38.564,46.521,38.915,46.521,39.091z M48.452,36.107c0-1.404-0.175-2.983-0.175-4.562l-0.526-2.808v-0.176
		c-0.175-0.175-0.351-0.175-0.351-0.175c-0.175,0-0.351,0-0.526,0.175v0.877c0,1.579-0.175,2.983-0.175,4.562
		c-0.176,0.877-0.176,1.755,0.175,2.632c0.526,0,1.053,0,1.579,0.176V36.107z M47.75,121.389c-0.175,0-0.175,0-0.175,0
		c-0.526,0.176-0.702,0.526-0.526,1.053c0.351,0.352,0.702,0.527,1.053,0.352c0.175-0.176,0.175-0.526,0-1.053L47.75,121.389z
		 M48.627,123.67c-0.176,0-0.351,0.176-0.526,0.352c-0.176,0-0.176,0.526,0.351,0.526c0.176,0.175,0.351,0,0.877,0.175
		C49.505,124.196,49.154,123.846,48.627,123.67z M51.084,35.757c0-0.526-0.351-0.877-1.228-1.053c0,0.877,0.351,1.93,0.877,3.334
		C50.909,36.81,50.909,36.283,51.084,35.757z M51.26,31.019h0.176c0.526-0.702,0.351-0.702-1.053-1.579
		C50.909,30.142,50.733,30.492,51.26,31.019z M51.786,125.601c-0.526-0.176-1.053-0.176-1.229,0.351
		C51.084,126.127,51.436,125.951,51.786,125.601z M53.19,120.862c-0.878,0.176-1.58,0-2.106,0.526c0,0.878,0.176,1.229,0.702,1.229
		c0.526,0.176,1.229,0.176,1.931-0.176L53.19,120.862z M52.488,39.792c1.229,1.93,2.105,3.51,2.808,5.44s1.755,3.86,2.281,5.966
		c0.175,0.877,0.526,1.579,0.702,2.105c0.526-0.526,0.701-0.526,1.228-0.702l-0.526-4.036l-1.579-0.526
		c-0.877-0.877-1.053-1.755-1.579-2.983L55.296,42.6c-0.176-0.526-0.526-0.877-0.702-1.053c-0.877-0.526-1.403-1.404-1.755-2.632
		c0,0.176-0.175,0-0.351-0.526C51.962,39.091,52.312,39.266,52.488,39.792z M53.19,33.651c0,0.351,0.351,0.526,1.053,0.351
		c-0.176-0.526-0.526-1.053-1.229-1.579C53.19,32.598,53.19,33.125,53.19,33.651z M53.365,30.142
		c0.176,0.351,0.352,0.702,0.878,1.228h0.351c0-0.351,0.176-0.702,0.351-0.877c-0.351-0.526-0.701-0.877-1.228-1.053
		C53.365,29.615,53.19,29.966,53.365,30.142z M54.243,36.107c0-0.175-0.176-0.175-0.702,0c0.176,0.877,0.176,1.755,1.053,2.632
		L54.243,36.107z M54.944,124.898c0.702,0.176,1.229,0,1.755-0.526v-0.176c-0.526-0.526-0.877-0.526-1.228-0.351L54.944,124.898z
		 M60.209,119.985c0.176-0.176,0.702-0.176,1.229-0.176c0.351,0,0.702,0.176,1.229,0.351c0.175,0,0.351-0.175,0.526-0.351
		c1.579-1.579,1.579-1.755,3.51-0.526c1.579-0.702,2.632-1.755,3.158-3.158l-0.176-0.176c-0.175,0-0.351,0-0.526,0.176
		c-1.579,1.229-3.158,1.403-5.089,1.93l-6.668,1.755l-1.579,0.526c0.176,0.176,0.176,0.526,0.176,1.053L60.209,119.985z
		 M57.577,30.492c0.175-0.175,0.351-0.175,0.351-0.175c0-0.175,0-0.351-0.176-0.351c-0.526-0.175-0.877-0.702-1.754-0.175
		C56.699,29.966,57.051,30.317,57.577,30.492z M55.998,32.598v0.351c0.175-0.176,0.175-0.176,0.175-0.176s0-0.175,0-0.351
		C55.998,32.598,55.998,32.598,55.998,32.598z M56.524,35.406c-0.176,0.175,0,0.526,0.175,1.053c0.526,1.93,0.526,3.51,0,4.738
		c0,0.526-0.175,0.877,0,1.404c0.176,0.877,0.352,1.755,0.878,2.983c0,0.175,0.175,0.351,0.526,0.702
		c0.702-4.211,0.877-7.896-1.053-12.108C56.699,34.879,56.524,35.23,56.524,35.406z M58.279,54.182v-0.175V54.182z M58.63,55.41
		l0.176,0.176l0.526,4.211c0.526,0.702,0.701,1.053,1.228,1.579c0.527,0.526,1.054,1.053,1.229,1.404l1.229,1.403l1.229,1.404
		c0.526,0.526,0.526,1.053,1.229,1.229c0-1.931,0-3.51-0.878-5.089c-1.93,0.175-2.632-0.878-3.509-2.281
		c-0.702-1.229-1.404-2.106-1.931-3.334c0-0.176-0.176-0.352-0.351-0.352C58.63,55.586,58.63,55.41,58.63,55.41z M61.788,68.922
		c0.878,1.579,1.931,2.982,2.808,4.387c0,0.176,0.352,0.351,0.878,0.526l-0.352-3.51c-0.175-0.526-0.526-0.877-1.053-1.053
		c-1.053-0.526-1.755-1.229-2.281-2.105l-1.579-2.457c-0.176-0.175-0.526-0.351-0.702-0.175c0.176,1.228-0.351,2.456,0.176,3.86
		C61.087,67.869,61.087,68.044,61.788,68.922z M64.245,80.679c0.176-1.229,0-2.281,0-3.51c-0.176-1.403-0.702-2.632-1.404-3.51
		L60.56,70.15c-0.175,0-0.351-0.176-0.701-0.527c0.175,1.931,0.526,3.159,0.701,4.562v4.388c1.229,0.877,2.106,1.754,3.335,2.982
		C64.069,81.029,64.069,80.854,64.245,80.679z M60.735,44.355c0.526-1.579,0.526-1.579,0-2.457
		C60.56,42.776,60.56,42.776,60.735,44.355z M60.735,32.072c0.176,1.228,0.176,2.281,0.702,3.685
		C62.14,33.125,62.14,33.3,60.735,32.072z M61.262,85.592c1.229,0.176,1.229,0,2.105,1.229l0.702,0.526
		c0.176-1.229,0-2.105-0.526-3.334c-0.526-0.702-1.053-0.702-1.579-1.229c-0.526-0.176-0.526-0.176-1.053-0.702
		C61.087,83.486,60.735,84.363,61.262,85.592z M61.613,56.813c-0.176,0-0.176,0-0.352-0.175c0.526,1.579,1.404,2.808,2.633,3.334
		C63.017,58.744,62.314,58.042,61.613,56.813z M61.262,101.911c1.931-1.579,2.105-3.685,2.808-5.791
		c-1.229-0.701-1.579-1.93-2.808-3.158V101.911z M61.438,90.154c0.526-0.176,0.877-0.351,0.877-0.526
		c-0.175-0.526-0.526-0.702-0.877-0.526V90.154z M63.017,44.355c-0.176,0.175-0.176,0.175-0.351,0.175l0.351,1.931
		c0.176,2.632,0,5.088,0,7.721c0,0.877,0,1.755,0.526,2.632c0.352,0.352,0.526,0.526,0.702,0.352
		c0.526-1.229,0.526-2.808,0.702-4.036c0.701-2.808,0-5.265-1.229-7.896L63.017,44.355z M65.122,44.706
		c-0.175-1.58-0.526-2.808-1.228-4.036l-0.527,1.579L65.122,44.706z M63.895,93.488c0,0.176,0.351,0.176,0.526,0.702
		c0.175-1.229,0.351-2.106-0.878-2.808L63.895,93.488z M65.298,84.539c0.351-0.877,0.526-1.755,0.351-2.457
		c-0.175,0.526-0.351,0.702-0.877,1.229L65.298,84.539z M66,78.397c0.175-1.053,0.175-1.931,0-2.457c-0.176,0-0.176,0-0.352,0.176
		l-0.175,0.176L66,78.397z M66.702,56.989c0,1.229-0.176,2.457-0.702,3.685c0,0.527,0.175,0.878,0.526,1.054l0.351-3.335
		c0-0.701,0-1.228,0.176-1.754c-0.176,0,0.351-0.176-0.176-0.176c0.176,0,0.176,0.176,0.176,0.351
		C66.877,56.989,66.702,56.989,66.702,56.989z"/>
</g>
</svg>
