<?xml version="1.0" encoding="utf-8"?>
<!-- Generator: Adobe Illustrator 16.0.0, SVG Export Plug-In . SVG Version: 6.00 Build 0)  -->
<!DOCTYPE svg PUBLIC "-//W3C//DTD SVG 1.1//EN" "http://www.w3.org/Graphics/SVG/1.1/DTD/svg11.dtd">
<svg version="1.1" id="Layer_1" xmlns="http://www.w3.org/2000/svg" xmlns:xlink="http://www.w3.org/1999/xlink" x="0px" y="0px"
	 width="99.5px" height="144px" viewBox="0 0 99.5 144" enable-background="new 0 0 99.5 144" xml:space="preserve">
<g enable-background="new    ">
	<path fill="#FFFFFF" d="M33.348,23.123v-1.053c0.526-0.877,0.351-1.228,1.58-1.053c0.526,0,0.877-0.175,1.228-0.526l2.281-2.457
		l3.334-0.526l1.404-0.351c0.526,0,0.526-0.176,0.702-0.176c2.105,0,4.387-0.175,6.493-0.175c1.228,0,2.28,0,3.509,0.175
		c2.633,0.527,5.44,0.176,8.072,0.702c0.526,0,0.877,0.175,1.403,0.351c1.229,0.526,1.931,1.404,1.931,2.632
		c0,2.632,0.351,4.738,0.877,7.019c0.176,0.351,0.176,0.877,0.176,1.58l-2.632,2.808c-1.229,1.404-1.755,3.159-2.281,5.089
		c0,0.175-0.176,0.351-0.176,0.877c-0.176,0.526-0.526,0.702-0.877,0.877c-0.702,0.526-1.229,0.702-1.931,0.702
		c-2.105,0.526-4.211,1.053-6.317,0.526H51.07c-0.526,0.702-0.351,1.404-0.526,2.281c0,1.229,0.176,2.457,0.352,3.685
		c0,1.228,0.175,2.105,0,3.334v4.036c-0.176,2.106-0.352,4.036-0.352,6.142v0.702c0.878,0.351,1.931,0.351,2.808,0.176
		c1.229-0.176,2.105,0,3.334-0.526c1.755-0.352,3.686-0.352,5.791-0.176c0.526,0,0.702-0.176,1.229-0.176
		c1.229,0,2.105,0,2.632,0.176c0.878,0,1.229,0.526,1.229,1.404c0.176,2.105,0.702,4.211,0.877,6.316c0,2.105,0,4.036,0.176,6.142
		c0,0.352-0.176,0.702-0.351,0.878l-1.755,3.51c-0.176,0.526-0.176,1.053,0,1.228c0.175,0.526,0.175,1.053,0,1.404
		c-0.878,0.175-1.579,0.526-1.931,1.053c-0.175,0.351-0.526,0.526-1.053,0.526l-3.334,0.351c-0.526,0-1.053,0.176-1.229,0.352
		c-0.877,0.702-1.93,0.702-3.158,0.175c-1.229-0.526-2.457-0.351-3.686-0.526c-0.175,0.176-0.175,0.526-0.175,0.878l0.351,4.737
		v0.526v4.738c0,1.229,0,1.931,0.176,3.158l0.351,2.457l0.352,3.51c0,1.229,0.175,1.93,0.175,3.158c0,0.526,0.176,0.702,0.176,1.229
		c0.351,0.176,0.877,0.176,1.403,0.176h2.808c1.931,0.526,3.51,0,5.44-0.176c2.105-0.351,4.387-0.351,6.668-0.176
		c0.176,0,0.351,0,0.526,0.176c0.176,1.229,0.351,2.457,0.351,3.86c0,1.229,0.176,2.281,0.176,3.51
		c0.176,1.403,0.176,2.632,0.176,4.036c-0.352,0.351-0.526,0.526-0.702,0.526c-0.526,0.175-1.229,0.526-1.755,1.403
		c-1.229,1.404-1.931,2.983-3.158,4.562c-0.526,0.526-0.878,0.702-1.053,0.702l-2.106,0.526l-4.211,0.526
		c-0.526,0.176-1.229,0.176-2.457,0.176c-3.334-0.176-6.141,0.175-9.475,0.351c-2.106,0-4.211,0.176-6.142,0.176
		c-0.527,0.175-0.702,0-0.877,0h-2.808c-1.404,0.175-2.808,0.175-4.211,0c-0.526-1.229-0.702-2.633-0.877-4.036
		c-0.176-3.334-0.176-5.966-0.702-9.301c0-2.105,0.176-4.211-0.351-6.316c-0.526-3.686-0.175-7.194-0.351-11.23
		c0-1.229,0-2.106-0.176-2.633l-0.526-7.545c0-1.404,0.176-2.808,0.176-4.212c0.175-2.105,0.175-4.035,0.175-6.142
		c0.175-2.105,0.175-4.387,0.175-6.492c0-2.281,0.176-4.387,0-6.668c-0.175-2.633,0-5.265,0-8.072c0-2.632,0.176-4.738,0-7.37
		v-0.526c0.526-2.105,0.176-4.036,0.176-5.966l0.351-6.317v-6.844c0-1.228,0.527-2.281,1.404-3.158L33.348,23.123z M32.821,101.034
		l-0.351-2.281c-0.175-1.931-0.351-3.86-0.877-5.791c-0.527-1.229-0.351-2.632-0.351-4.036c0-1.053,0.351-1.93,0.877-2.457
		c-0.526-2.807-0.351-5.439-1.053-8.247l-0.526,6.142c-0.175,1.931,0.176,3.334,0.351,5.265v2.456
		c0.526,2.106,0.877,4.036,0.351,6.143c0,0.877,0,1.579,0.175,2.808c0,0.175,0,0.175,0.176,0.351L32.821,101.034z M31.417,44.355
		c0,0.877-0.175,1.755-0.175,2.983c0.175,1.229-0.351,1.755,0.175,2.983c0.526-0.176,0.877-0.351,0.877-0.877v-0.351
		c-0.351-0.526-0.351-1.229,0-1.93v-0.702c0-1.229,0-2.457-0.175-3.685c0-0.527-0.176-0.877-0.351-1.755
		C31.242,42.249,31.593,43.126,31.417,44.355z M31.417,56.463c0,0.526,0.351,0.702,0.877,0.526c-0.526-0.702-0.351-1.403-0.877-1.93
		C31.242,55.41,31.242,55.937,31.417,56.463z M35.103,63.481c0-0.877-0.351-1.579-0.877-2.105c-1.404,0.702-1.404,0.702-1.579-0.877
		v-0.702c-0.176-0.526-0.526-0.877-1.229-1.053c0,1.579,1.404,4.913,3.334,7.896C35.278,65.763,35.278,64.71,35.103,63.481z
		 M31.417,66.991c1.229,0.526,1.229,0.352,2.106,1.579c0.175,0,0.351-0.175,0.526-0.175c-0.702-1.931-1.58-3.51-2.632-4.562V66.991z
		 M31.769,40.144v-0.175v-0.176v0.176V40.144z M33.523,26.632c-0.176-0.526,0-0.877-0.527-1.404
		c-0.702,0.526-1.053,1.229-1.053,2.106c0,0.526,0.176,0.351,0.176,0.877c0.526,0,1.053-0.175,1.579-0.175
		C33.523,27.509,33.699,27.158,33.523,26.632z M31.944,31.896c0.702-0.526,0.702-0.351,0-1.93V31.896z M33.172,76.116
		c0-1.404,0-2.983,0.175-4.387c0-0.878-0.351-1.755-1.053-2.457c-0.526,2.281,0,9.301,0.877,12.459V76.116z M35.629,120.688
		c-0.702-1.931-1.755-3.51-1.755-5.791c0-1.229-0.351-2.632-0.351-3.86c-0.176-1.404-0.176-2.633-0.702-4.036
		c0,1.579-0.351,2.983,0.175,4.562l0.702,5.264c0.175,1.58,0.351,2.983,0.877,4.388c0.175,0.877,0.351,1.579,1.053,2.456
		C36.155,121.74,36.155,121.915,35.629,120.688z M40.542,125.775c0.526,0,0.526-0.175,0.702-0.175
		c-0.175-0.526-0.526-0.702-0.877-0.526c-0.877,0.526-1.579,0.526-2.457-0.352l-0.702-0.526l-1.053,0.878
		c-0.702,0.701-1.228,0.526-1.754-0.352c-0.527-0.877-0.702-1.579-0.877-2.456c-0.176-0.702-0.176-1.229-0.702-1.931
		c-0.175,1.931,0.351,3.159,0.351,4.562c0,0.176,0.175,0.351,0.175,0.877H40.542z M34.05,94.19c-0.526,0-0.702,0.175-0.877,0.175
		c0.175,0.527,0.175,1.404,0.175,2.281c0.176,0.176,0.176,0.526,0.702,0.526V94.19z M35.103,33.476l1.053,2.632
		c0.526,0.877,0.702,1.755,1.229,2.632l0.877,0.702c0.175-1.228,0.526-2.281-0.702-2.983c-0.175,0-0.175-0.175-0.175-0.351
		c-0.702-1.228-1.404-2.281-1.93-3.86c-0.176-0.526-0.176-0.877-1.404-1.404L35.103,33.476z M34.05,48.215h0.526
		c0.175-0.702,0-1.228-0.526-1.579V48.215z M34.401,80.152v5.089c0,0.526,0,0.877,0.175,1.228c0.526-0.175,0.877-0.526,0.877-0.877
		c0-1.93-0.176-4.036-0.877-5.966C34.576,79.801,34.401,79.977,34.401,80.152z M34.751,50.848h-0.175v0.702h0.175V50.848z
		 M34.576,90.856v-0.176V90.856z M38.261,43.829c-0.877-1.404-1.404-2.808-2.106-4.211c-0.526-0.526-0.702-1.229-1.404-1.404
		c-0.175,0.526-0.175,1.053,0.351,1.404c0.702,1.93,1.404,3.334,2.106,4.913c0.351,0.526,0.702,0.877,1.228,1.053
		C38.612,45.057,38.437,44.53,38.261,43.829z M35.103,70.852c-0.351,0.702-0.175,1.229,0.351,1.755L35.103,70.852z M38.085,32.423
		c0.176,0,0.176,0,0.176-0.176c0-1.229,0.175-2.281,0-3.509c0-1.229,0.526-2.457,0-3.685c-0.877,0.351-1.58,0-1.755-0.877
		c-0.175-0.702-0.526-1.053-1.053-1.229c-0.176,0.526-0.351,0.702-0.351,0.702c-0.175,0.877,0,1.404,0.526,1.754
		c0.877,0.527,1.404,1.58,1.93,2.808c0,0.176,0,0.351,0.176,0.527c0.526,1.228,0.526,1.053-0.702,1.93c0,0-0.175,0.175-0.351,0.351
		L38.085,32.423z M35.454,45.057c0.175,1.404,0,1.229,1.228,2.457C36.857,46.636,36.331,45.759,35.454,45.057z M36.155,117.354
		l0.351-0.527c0-1.403,0.175-2.982-0.351-4.387c0-0.351-0.175-0.526-0.351-0.351c-0.175,1.93-0.351,3.334,0.176,5.265H36.155z
		 M35.804,53.655c0,0.702,0.351,1.229,1.053,1.579c0-1.228,0.351-2.281-1.053-2.983V53.655z M36.682,107.176
		c-0.526,1.228-0.526,1.228,0.351,1.93C36.857,108.579,37.208,107.877,36.682,107.176z M36.331,105.421h0.175
		c0-0.176,0-0.352-0.175-0.526V105.421z M36.682,60.323v-0.176V60.323z M38.963,86.118c0-1.579,0-3.334-0.175-4.913
		c0-0.526-0.176-0.702-0.176-0.878c-0.175-0.701-0.526-1.403-0.526-1.93c-0.526-2.105-0.351-4.212-0.526-6.142
		c0,0-0.175-0.176-0.351-0.352c-0.176,0.176-0.351,0.352-0.351,0.878c0,2.281,0,4.562,0.175,6.844c0,0.175,0,0.526,0.176,0.701
		c0.175,0.878,0.526,1.755,0.702,2.281c0,0.878,0.175,1.404,0.351,1.755c0.526,0.702,0.351,1.229,0.526,1.931
		C38.963,86.294,38.963,86.294,38.963,86.118z M38.085,20.49c-0.526,0.351-0.877,0.702-0.877,1.229c0.526,0,0.526,0.175,1.053,0.175
		C38.261,21.368,38.612,21.017,38.085,20.49z M37.735,121.915c0.526,0.702,0.526,1.404,1.404,1.931
		c0.175-0.176,0.175-0.351,0.175-0.526c0-0.526,0-0.702-0.175-0.878c-0.527-0.701-0.702-1.403-1.404-2.105
		C37.559,121.214,37.559,121.74,37.735,121.915z M39.139,102.438c0.175-1.403,0-2.808,0.175-4.387c0-1.053-0.175-2.105-0.526-3.158
		c-0.526-0.176-0.702-0.352-0.877-0.352c-0.351,4.387-0.351,5.439,0.877,9.827C39.489,103.842,39.139,103.14,39.139,102.438z
		 M39.139,112.439c-0.351,0.176-0.877,0.176-1.404,0.176c0,0.702,0.175,1.229,0,1.755c0,0.877,0.526,1.579,1.579,2.456
		C39.314,115.247,39.139,113.844,39.139,112.439z M38.085,23.123v0.351h0.176v-0.351H38.085z M62.827,61.201
		c-2.105-0.176-4.035-0.176-5.79,0.175c-2.633,0.526-4.562,0.526-7.195,1.053c-1.053,0.176-1.403-0.175-1.228-1.403
		c0-1.931,0.175-3.686,0.351-5.615c0.351-2.632,0.351-5.615,0.175-8.599v-3.334c-0.175-2.105-0.175-4.387-0.175-6.493
		c0-1.579-0.176-2.983-0.176-4.562c0-0.702,0.176-1.58,0.526-2.457c0.526,0,1.053-0.351,1.58-0.175
		c0.877,0.175,1.754-0.175,2.632-0.175c3.334-0.176,6.492-0.176,9.826-0.877c0.176,0,0.526-0.176,1.054-0.351
		c-0.527-2.632-0.702-5.089-0.878-7.721c-0.176-0.877-0.702-1.228-1.403-1.404l-2.808-0.526l-5.967-0.351
		c-1.403,0-2.808-0.176-4.211-0.176c-1.229,0-2.106,0.176-3.334,0.176c-1.229,0.175-2.106-0.176-3.334,0.351
		c-0.526,0.176-0.877,0.351-1.053,0.351l-1.403,0.526v0.877v8.248v8.072v5.439c0.175,1.229,0.175,1.931,0.175,3.159
		c0.175,2.983,0.175,5.966,0.175,8.949c0,0.702,0.176,1.58,0.351,2.808l0.351,1.228c-0.526,0.527-0.702,1.054-0.702,1.755
		c0,2.106-0.175,4.212-0.175,6.317c0,1.931-0.526,3.86,0,5.791c0.175,0.526,0,0.877,0,1.403v1.579c0,1.229,0,2.106,0.175,3.335
		c0,2.808,0.176,5.615,0.176,8.423v6.316v2.281c0,0.702,0.175,1.404,0.175,2.105v6.143v1.053v3.158c0,1.229,0.175,1.931,0,3.158
		c0,2.281,0.351,4.562,0.351,6.844c0,0.526,0.351,0.702,0.877,0.878c0-0.176,0.175-0.352,0.351-0.352
		c0.877-0.701,1.58-0.701,2.281-0.175c0.176,0.175,0.526,0.175,0.702,0.701h0.702c1.58-0.526,2.983-0.526,4.914-0.701l3.86-0.526
		c2.808-0.526,5.439-0.702,8.247-0.526h4.212c1.228,0,1.93-0.702,1.93-1.931v-1.053c-0.176-1.229-0.176-2.105-0.176-2.983
		c-0.175-1.229,0-1.93-0.526-3.158c-1.93-0.176-3.509-0.176-4.913,0.175c-1.93,0.176-3.158,0.878-5.089,0.352
		c-1.579-0.526-3.158-0.176-4.737,0.351c-0.878,0-1.58-0.176-2.106-0.526v-3.86l-0.701-7.194c0-1.404-0.352-2.632-0.176-3.86
		c0.176-1.931,0-3.51-0.176-5.44c-0.526-2.808-0.351-5.615-0.351-8.423c0-1.403,0.176-2.808,0-4.387
		c-0.175-0.877,0.176-1.403,1.229-1.579c1.93-0.526,3.509-0.877,5.439-0.702h1.403c1.404,0,2.633-0.175,4.036,0
		c1.404,0,2.808-0.175,4.212-0.526c0-2.632,0.175-4.562,0-7.194c0-1.229-0.352-2.457-0.878-4.036
		C64.407,60.85,63.705,61.201,62.827,61.201z M41.069,122.441c0.526,0.878,1.053,1.931,2.281,2.106c0,0,0.175,0,0.702,0
		c0-0.526,0-0.702,0-0.702l-1.053-2.105c-0.526-1.229-0.702-1.404-2.281-0.878C40.542,121.389,40.718,121.915,41.069,122.441z
		 M46.333,121.038v2.457c-0.175,0.701,0.175,1.228,1.053,1.754c0.526,0.352,0.877,0.176,0.877-0.526c0-0.526,0-0.877-0.175-1.053
		c-0.351-0.877-0.702-1.755-1.229-2.281c0-0.175-0.175-0.526-0.351-0.701C46.333,120.862,46.333,121.038,46.333,121.038z
		 M49.141,120.336c0.175,0.878,0.526,1.579,0.702,2.105c0.176,0.527,0.527,1.229,1.228,1.931c0.352,0.526,0.878,0.526,1.404,0.351
		c0.351-0.175,0.526-0.526,0.526-1.403c-0.176-0.702-0.526-1.229-0.702-1.404c-0.526-0.877-0.877-1.579-1.403-1.93L49.141,120.336z
		 M51.948,32.072c-1.229,1.228-0.878,2.632-0.702,4.211c0.176,1.053,0.702,1.579,1.579,1.755c0.702,0.175,1.229-0.351,1.755-1.229
		c0.702-0.877,1.053-1.93,1.053-3.159c0.176-1.93,0-1.93,1.931-2.457c-1.053-0.176-1.931,0-2.457,0.175
		c-0.526,0.526-0.702,1.053-0.702,1.93c0,0.702,0,1.229-0.175,1.755c-0.176,0.877-0.702,1.053-1.229,0.877s-0.702-0.526-0.702-1.229
		l0.526-2.281c-0.176-0.176-0.176-0.176-0.176-0.351H51.948z M52.825,79.801c-0.176-0.877-0.351-1.579-0.176-2.105
		c0.527-0.702,0.176-1.579,0.352-2.281c-0.526-0.176-0.878,0.176-0.878,0.702c0,1.579,0,2.983-0.175,4.562
		c0.526,0.175,1.053,0.351,1.403,0.175L52.825,79.801z M56.335,122.969c0.877,0.175,1.229,0,1.229-0.878
		c0.175-0.526,0.175-0.877-0.176-1.229l-1.053-1.579c-1.229,0.176-1.931,0-2.808,0.526
		C53.878,121.389,54.756,122.441,56.335,122.969z M54.404,125.249c2.106,0.176,4.388,0,6.844-0.877c0-0.526-0.351-0.176-0.877-0.702
		c-0.526-0.175-0.526-0.526-1.053-0.701c-1.229,1.93-2.983,1.754-4.914,1.228V125.249z M64.582,78.047
		c0.878-1.229,1.404-2.457,1.579-3.51c-0.877,0-1.579,0-2.105,0.175h-1.93c-2.281-0.526-4.388,0.176-6.669,0.176
		c-0.175,0-0.175,0.176-0.701,0.176c0.175,0.175,0.175,0.351,0.175,0.526c0.878,0.526,1.229,1.579,1.054,2.808
		c-0.176,0.877-0.176,1.755,0,2.632c0.877,0.176,1.579,0.176,2.456,0c0-0.526,0.352-0.877,0.176-1.403
		c-0.176-0.878-0.176-1.931-0.878-2.808c-0.526-0.526-0.175-1.229,0.702-1.229c0.526,0,1.053-0.352,1.579,0.176
		c0.878,0.526,1.755,0.526,2.633,0.526C63.179,76.643,63.705,77.169,64.582,78.047z M58.792,37.862l0.701-0.702
		c0.176-0.527,0.176-0.877,0-1.229c-0.526,0.175-0.877,0.175-1.053,0.351c-0.526,0.526-1.053,0.702-1.755,0.702
		c-0.701,0.176-1.053,0.526-1.229,1.404C56.686,38.389,57.738,38.213,58.792,37.862z M58.616,119.107
		c0.877,1.755,2.105,2.983,4.036,3.686l-1.931-3.686H58.616z M60.02,31.019c-0.701,2.281-0.701,2.808,0,4.036
		c0.702-1.404,1.58-2.808,2.457-4.211C61.6,30.317,60.897,30.843,60.02,31.019z M60.546,78.397c0.176,1.579,0.176,1.579,1.054,2.281
		c0.175-0.352,0.351-0.878,0.351-1.755L60.546,78.397z M67.039,119.107c-1.404-0.175-1.229-0.351-2.457,0.176
		c0.526,0.702,0.702,1.229,0.878,1.931C66.337,120.336,66.863,119.634,67.039,119.107z"/>
</g>
</svg>
