<?xml version="1.0" encoding="utf-8"?>
<!-- Generator: Adobe Illustrator 16.0.0, SVG Export Plug-In . SVG Version: 6.00 Build 0)  -->
<!DOCTYPE svg PUBLIC "-//W3C//DTD SVG 1.1//EN" "http://www.w3.org/Graphics/SVG/1.1/DTD/svg11.dtd">
<svg version="1.1" id="Layer_1" xmlns="http://www.w3.org/2000/svg" xmlns:xlink="http://www.w3.org/1999/xlink" x="0px" y="0px"
	 width="99.5px" height="144px" viewBox="0 0 99.5 144" enable-background="new 0 0 99.5 144" xml:space="preserve">
<g enable-background="new    ">
	<path fill="#FFFFFF" d="M53.3,81.731v2.457c-0.176,0.701-0.351,1.579-0.176,2.28c0,2.633,0.176,4.738,0.352,7.37
		c0.175,1.931,0.351,4.036,0.351,6.142l0.526,8.774c0,2.105,0.176,4.211,0.176,6.317c0,1.228-0.176,2.281-0.176,3.509
		c0,1.229-0.351,2.281-1.229,3.159c-0.701,0.877-1.053,1.93-1.579,3.158c-0.351,0.877-0.877,1.229-1.755,1.404
		c-1.228,0-2.281,0.175-3.509,0.351c-1.229,0-1.755,0-2.983,0.176c-1.404,0-2.808,0-4.036,0.175c-1.229,0-1.93,0.176-3.159,0.176
		c-1.229,0.176-2.106,0.176-3.334,0.176c-1.229,0-1.93-0.526-2.106-1.755v-3.86c-0.175-2.281-0.351-4.562-0.175-6.668
		c0-2.633-0.351-4.738-0.175-7.02c0-1.403,0.175-2.808,0.175-4.211v-6.844v-1.053c0.526-2.983,0-5.967,0.175-8.949
		c0.176-1.931-0.175-3.861,0.351-5.791c0.175-1.579,0-3.158,0-4.738v-1.93c0.175-0.878-0.175-1.755-0.175-2.457
		c-0.176-1.93-0.351-2.105,0.175-4.036c0.175-1.228,0.175-2.281,0.175-3.158c0-1.229,0.176-2.632,0.176-4.036
		c0.175-3.334,0-6.668,0.526-10.002c0.175-1.93,0-3.51,0-5.44l0.702-6.668c0-0.526,0.175-1.053,0.175-1.755
		c-0.175-2.281,0-5.089,0.351-8.072c0-1.579-0.176-2.983-0.176-4.913v-0.527l4.211-4.387c0.702-0.877,1.404-1.404,1.93-2.632
		c0.176-0.351,0.526-0.526,1.053-0.526c0.702,0.176,1.404,0.526,2.281,0.702c0.702,0,1.404-0.526,2.106-0.526
		c2.106-0.176,4.211-0.176,6.142-0.702h0.702l5.615,0.526c2.808,0,5.615,0.877,8.598,0.877c1.229,0,2.457,0.175,3.686,0.351
		c1.053,0,1.755,0.351,2.281,0.877c0,1.579,0.175,2.983,0.175,4.562c0,1.229,0.176,2.632,0.526,4.036
		c0.176,0.526,0.176,1.229-0.175,2.106c-0.878,2.105-1.755,4.036-2.281,6.317c0,0.877-0.526,1.404-1.404,1.579l-0.175,0.176
		c-2.281,0-4.388,0.877-6.669,1.053l-6.668,0.702c-0.701,0.175-1.403,0-1.93,0.526c-0.526,0.702-0.176,1.404-0.176,2.105
		c0.176,1.58,0.351,3.159,0.176,4.738c-0.176,0.176-0.176,0.351,0,0.702c0.526,1.228,0.175,2.281,0,3.509c0,0.526,0,0.877,0,0.877
		c0.526,2.281,0.175,4.563,0.175,6.843c0,0.702-0.351,1.58,0.176,2.281c0.526,0,0.702,0.176,1.229,0.176
		c2.105-0.176,4.387-0.351,6.492-0.351h2.633c0.526,0,1.053,0,1.403-0.176c1.404,0,2.808-0.176,4.387-0.351
		c1.053-0.176,1.931,0,2.808,0.701c0,0.702,0.176,1.58,0.176,2.457c0.176,2.632,0.176,4.913,0.702,7.546v1.053
		c0,0.526-0.176,0.877-0.526,1.053c-0.352,0-0.526,0.176-0.702,0.526c-0.702,1.229-1.579,2.456-2.105,4.036
		c-0.176,0.526-0.526,1.229-1.053,1.755s-0.702,0.877-0.878,1.403c-0.351,0.877-1.053,1.229-2.105,1.229
		c-0.702,0-1.579,0.176-2.457,0.176c-1.229,0-2.281,0.175-3.509,0.351h-1.58H53.3z M33.997,110.685c0-0.175,0-0.175-0.175-0.175
		c-0.175-2.106-0.877-4.036-1.579-6.142c-0.702,1.403-0.176,2.808-0.351,4.035c0.877,0.702,0.877,0.702,1.579,1.58
		c0.176,0.175,0.351,0.351,0.526,0.351V110.685z M35.401,122.441c-0.176,0.176-0.351,0.527-0.877,0.702
		c-0.702,0.176-1.053,0-1.229-0.702l-0.526-2.456c-0.175-0.526-0.351-0.702-0.526-0.702c-0.526,1.931,0.175,4.036,0.175,6.142
		c1.93,0.526,3.159,0.176,4.738,0v-0.176L35.401,122.441z M32.243,89.804c-0.176,1.93,0,3.685,0,5.615
		c1.579,1.228,1.93,2.808,3.334,4.035c-1.229-3.334-1.755-6.142-3.159-9.476c1.404-1.93,0.351-3.86,0.176-5.79
		C32.067,86.118,32.418,87.873,32.243,89.804z M35.226,105.596c-0.175-1.228-0.351-1.754-0.877-2.632
		c-0.702-1.579-0.877-2.983-2.105-4.913v1.229v1.053c0.877,0.526,0.877,1.403,1.404,2.105c0.175,0.526,0.526,0.702,0.702,0.526
		C34.173,103.842,34.524,104.719,35.226,105.596z M33.997,70.15l-1.228-1.755c-0.175,1.403-0.175,2.632,0,3.685
		C33.997,71.729,34.524,71.027,33.997,70.15z M34.875,67.693c-0.526-1.229-0.702-2.105-1.228-2.983
		c-0.176-0.526-0.176-0.877-0.702-0.877c-0.526,1.93,0.176,3.685,1.755,5.264C34.699,68.396,34.875,68.22,34.875,67.693z
		 M33.295,59.797l-0.351,1.053c0.351,0.176,0.702,0.352,0.877,0.176L33.295,59.797z M33.646,50.848l-0.351,2.632
		c-0.175,0.702,0,1.404,0.526,2.281c0.702,0.702,1.229,1.579,1.93,2.457h0.351L33.646,50.848z M33.295,113.317v0.351
		c0.175-0.176,0.175-0.176,0.175-0.176L33.295,113.317z M34.348,41.372c0,0-0.175-0.176-0.351-0.351
		c-0.526,1.93-0.175,3.685-0.351,5.615c-0.176,0.175,0,0.702,0.175,1.404h0.351c0.175,0,0.351,0,0.526-0.176
		C34.699,45.759,34.524,43.478,34.348,41.372z M35.577,85.416c-0.877,0.526-0.702,1.404-0.877,2.281
		c-0.175,1.229,0,2.457,0.351,3.86c0,0.176,0,0.176,0.175,0.176c0.176,0,0.176,0.176,0.351,0.176V85.416z M34.699,31.194
		c1.229-1.404,0.877-2.983,0.702-4.387C34.699,28.036,34.699,29.264,34.699,31.194z M35.401,33.125
		C35.226,33.3,35.226,33.3,35.05,33.3c0,0.176,0,0.176,0.175,0.176h0.176V33.125z M37.507,66.114
		c0.526,0.702,0.526,1.229,1.229,1.93c-0.176-1.228,0.175-1.755-0.702-2.456c0,0,0-0.176,0-0.526
		c-0.526-0.526-0.526-0.878-0.702-1.404c-0.527-1.403-0.877-2.632-2.106-3.86v0.877l1.404,3.159c0,0.175,0.175,0.351,0.351,0.877
		c0.175,0.176,0.526,0.352,1.053,0.352C37.858,65.588,37.507,65.588,37.507,66.114z M35.577,109.983
		c-0.175-0.176-0.175-0.176-0.175-0.176v0.176c0,0.175,0,0.175,0.175,0.175c0,1.229,0.175,2.281,0.351,2.808l0.351,1.404l0.526,3.86
		c0,0.526-0.175,0.877-0.351,1.053c0,0-0.176,0.176-0.702,0.351c0.526,1.229,1.229,2.281,2.106,3.51
		c0,0.176,0.175,0.176,0.526,0.352c0-1.229,0-1.931-0.175-3.159l-0.527-2.281c0-0.526,0-1.053,0.176-1.229
		c0.526-0.526,0.702-1.403,0.526-2.456c-1.404-0.176-1.229,0-1.755-1.229c0-0.351,0-0.702-0.175-0.877
		c-0.176-0.702-0.176-1.58-1.053-2.106C35.577,109.983,35.577,109.983,35.577,109.983z M35.752,37.687v0.175V37.687z M37.682,44.18
		c0.351-0.351,0.351-0.702,0.176-1.229c-0.526-1.229-0.526-2.808-1.755-3.685C35.928,41.547,36.278,41.547,37.682,44.18z
		 M36.805,76.643c-0.526,0.526-0.526,1.229-0.351,1.755c0.175,0.176,0.702,0.176,1.228,0.176
		C37.156,77.871,37.507,77.169,36.805,76.643z M36.454,72.08v0.176c0-0.176,0-0.176,0.175-0.176H36.454z M36.98,56.287l1.053,3.686
		l0.526,1.403c0-0.175,0-0.175,0.176-0.175c0.175-2.809,0-5.615-1.931-8.423C36.278,54.182,36.454,55.059,36.98,56.287z
		 M37.156,34.177c0,1.229-0.175,2.281,0.351,3.51c0.526-1.229,0.526-2.632,0-8.423C36.629,31.194,37.156,32.598,37.156,34.177z
		 M37.858,103.49c0.526-1.053,0.526-2.281,0.351-3.685c-0.527,0-0.877,0.175-0.877,0.526L37.858,103.49z M38.033,47.864
		c0-0.175-0.175-0.351-0.526-0.175c0.175,0.526,0,0.877,0.526,1.404c0,0.702,0,1.229,0.702,2.106
		c-0.176-0.877-0.351-1.229-0.351-1.755c0-0.175-0.351-0.175-0.351-0.351V47.864z M38.209,112.265c0.175-1.229,0-2.281-0.176-3.51
		C37.507,110.685,37.682,110.86,38.209,112.265z M38.033,79.626c0,0.175,0,0.175,0.176,0.175c0,0,0,0-0.176,0.176h0.176v-0.176
		C38.209,79.626,38.209,79.626,38.033,79.626z M38.209,72.782c0,0,0.175,0.176,0.351,0.351c0-0.175,0-0.351,0-0.351
		c0-0.176-0.175-0.176-0.175-0.351C38.209,72.606,38.209,72.782,38.209,72.782z M38.209,97.524v-1.229V97.524z M38.209,104.368
		v0.175v0.176v-0.176V104.368z M40.841,21.543l-0.351,12.81v5.264c-0.175,1.404,0,2.983-0.175,4.387c0,1.053,0,1.755,0.175,2.281
		v1.404c0,2.808-0.175,5.791,0,8.598v4.914c0,1.93-0.175,3.158-0.175,5.088c0.175,2.106,0.175,4.212,0,6.317
		c-0.526,2.632-0.175,5.089-0.175,7.721v2.457v10.354c0,2.632,0,4.913-0.176,7.545c-0.175,1.931,0,3.686,0,5.615
		c0.176,4.036,0.176,7.896,0.176,11.933c0,0.526,0,0.877,0.175,1.053c0,0.526,0.175,0.702,0.702,0.702c1.228,0,2.281,0,3.509-0.176
		l7.371-1.403l0.526-0.352c0.351-1.93,0.351-4.036,0.175-6.316c0-3.335-0.175-6.844-0.351-10.178s-0.176-6.142-0.702-9.477
		c-0.175-2.28-0.175-4.737-0.175-7.019c0-1.229,0-1.931-0.176-3.158c-0.176-0.702-0.176-1.58,0-2.457
		c0.176-1.931,0.176-4.036,0.176-6.142c0-0.526,0.175-0.526,0.175-1.053c2.105-0.526,4.036-1.404,6.317-1.229
		c1.229-0.526,2.632,0,3.86-0.702h0.526c1.931,0.526,3.86,0.176,5.791,0.352c0.526,0.175,1.053,0.175,1.579,0
		c0.702,0,1.229-0.176,1.404-0.526l-0.352-6.143c0-0.877,0-1.403-0.176-1.93c0-0.526-0.351-0.877-0.877-1.053h-2.105
		c-3.51,0.526-7.02,0.526-10.528,0.702c-0.878,0-1.755,0.175-2.633,0.175c-0.702,0-1.403,0.176-2.281,0.176
		c-0.526,0-0.701-0.176-0.701-0.702s-0.176-0.702,0-1.229v-4.035v-7.195l-0.527-10.002c0-1.228,0.176-1.754,0-2.983
		c-0.526-2.632,0.176-5.089,0.176-7.721c0,0.176,0.176,0,0.352-0.526l6.668-0.526l7.37-0.351h1.228h2.633
		c0.175,0,0.351-0.176,0.877-0.351c-0.526-2.632,0-4.914-0.526-7.545c-0.877-0.526-1.579-0.526-2.808-0.526h-1.931
		c-2.808-0.527-5.79-0.702-8.598-1.229l-4.913-0.351c-0.176,0-0.176,0.175-0.702,0.175c-1.58,0-3.159,0.527-4.738,0.527
		c-1.93,0-3.685,0.175-5.089,2.105V21.543z M42.771,123.319c-0.702,0-1.053,0.176-1.579,0.176c-0.526-0.176-0.702-0.526-1.229-1.054
		v2.633c1.58,0.175,2.808,0.175,4.036-0.176L42.771,123.319z M44.701,122.793l0.877-0.702c0.176-0.176,0.702,0,0.702-0.702
		c-1.053,0-1.755,0.176-2.281,0.526c0,0.176,0.175,0.352,0.175,0.526L44.701,122.793z M49.615,124.372
		c0.526,0,0.702-0.176,0.175-0.702h-1.579c-0.176,0.526,0,0.702-0.526,1.229L49.615,124.372z M50.668,120.512
		c0,0.526,0,1.053,0.175,1.229h0.176c0.176-0.526,0.352-0.878,0.878-1.58C51.194,120.336,50.843,120.512,50.668,120.512z
		 M52.949,35.406c-0.526,0.526-0.526,1.228,0,1.755c1.229-0.527,2.105,0.175,3.334-0.527c-0.352-0.351-0.702-0.526-0.878-0.351
		c-0.526,0.526-1.228,0.351-1.755-0.351L52.949,35.406z M53.826,29.615c-0.526,0-0.526-0.176-0.702-0.176
		c-0.175,0.176-0.175,0.176-0.175,0.351c0.175,0.175,0.175,0.351,0.175,0.351L53.826,29.615z M54.178,80.152
		C54.002,79.45,53.65,79.1,53.3,79.1C52.773,80.327,52.949,80.152,54.178,80.152z M54.178,73.659
		c0.877,1.579,1.579,2.983,2.456,4.212c0.176,0.526,0.702,1.053,1.404,1.755c0,0,0.175,0.175,0.701,0.351
		c0.176-1.579,0.176-2.983-0.351-4.036l-1.755-2.982L54.178,73.659z M58.564,33.3c-0.526-0.526-0.878-0.351-1.404-0.877l0.878-1.229
		l-0.526-2.281c-1.58,0-1.58,0-2.457,0.702c1.229,2.105,1.053,4.387,2.983,6.317C59.266,35.055,58.739,34.177,58.564,33.3z
		 M58.739,72.782c0.176,0.176,0.176,0.351,0.176,0.526l2.457,4.387c0.526,0.702,0.877,1.053,1.403,1.229
		c0.526-0.877,0.526-1.755,0-2.983l-1.403-2.808c-0.176-0.175-0.352-0.526-0.352-0.877L58.739,72.782z M58.915,28.738
		c0.176,0.526,0.176,0.702,0.351,0.877l0.352,0.877c0.351,0.702,0.877,0.702,1.579,0c-0.176-0.526-0.176-1.228-0.702-1.754h-0.701
		H58.915z M60.67,35.757c-0.176,0-0.351,0-0.526,0.175c0,0.175,0,0.175,0.176,0.175c0,0.176,0.175,0.176,0.351,0.176
		c0,0,0.176-0.176,0.702-0.351C61.196,35.757,60.846,35.757,60.67,35.757z M60.67,32.773c0,0.526,0.176,0.526,0.176,0.702
		c0.175-0.176,0.351-0.176,0.351-0.176c0-0.351,0-0.526-0.176-0.702C60.846,32.773,60.67,32.773,60.67,32.773z M60.846,79.626
		c-0.176,0-0.176,0-0.176,0.175C60.846,79.626,60.846,79.626,60.846,79.626z M62.425,35.932c0.526,0.175,0.877,0.175,1.403-0.351
		c-0.526-0.526-0.877-0.877-1.053-1.228C62.601,35.055,61.898,35.406,62.425,35.932z M62.775,28.913v0.175l0.176,0.176
		c0-0.176,0.176-0.176,0.176-0.351C62.951,28.913,62.775,28.913,62.775,28.913z M63.828,72.256c0.526,1.403,0.526,2.456,1.053,3.685
		c0.176,0.526,0.527,0.526,0.702,1.053c0,0,0.176,0,0.352,0c-0.526-0.701-0.526-1.579-0.702-2.281
		c-0.176-0.526-0.176-1.403-0.176-2.456H63.828z M64.004,32.072c0.176,1.228,0.176,1.228,0.877,1.404
		c0.176-0.351,0.176-0.877,0.176-1.755C64.354,31.896,64.004,32.072,64.004,32.072z M64.706,79.45
		c0.175-0.176,0.351-0.176,0.351-0.176c0-0.175,0-0.175-0.176-0.351L64.706,79.1V79.45z M66.285,35.055
		c0.526,0,0.877-0.175,1.403-0.175c0.527-0.877,0.352-1.93-0.877-3.159C66.285,32.949,66.461,33.826,66.285,35.055z M66.812,74.361
		c0.526-0.526,0.526-0.877,0.176-1.403c0,0.175,0,0.175-0.176,0.175V74.361z M69.093,30.317c0.526-0.877,0.526-0.877,0.702-1.579
		c-0.176,0-0.352-0.176-0.526-0.176c-0.526,0-0.878,0.176-1.58,0.176C67.864,29.966,68.566,29.791,69.093,30.317z"/>
</g>
</svg>
