<?xml version="1.0" encoding="utf-8"?>
<!-- Generator: Adobe Illustrator 16.0.0, SVG Export Plug-In . SVG Version: 6.00 Build 0)  -->
<!DOCTYPE svg PUBLIC "-//W3C//DTD SVG 1.1//EN" "http://www.w3.org/Graphics/SVG/1.1/DTD/svg11.dtd">
<svg version="1.1" id="Layer_1" xmlns="http://www.w3.org/2000/svg" xmlns:xlink="http://www.w3.org/1999/xlink" x="0px" y="0px"
	 width="99.5px" height="144px" viewBox="0 0 99.5 144" enable-background="new 0 0 99.5 144" xml:space="preserve">
<g enable-background="new    ">
	<path fill="#FFFFFF" d="M68.105,118.23l-1.579,1.229c-0.526,0.526-0.878,0.877-1.229,1.053c-0.877,0.702-1.931,1.403-2.808,2.281
		c-0.877,0.702-1.931,1.229-2.808,1.579c-1.931,0.526-3.334,0.702-4.913,1.403c-0.352,0.176-1.053,0.352-1.931,0.352
		c-3.334,0-6.493,0-9.827-0.176c-1.579,0-2.983-0.351-4.562-0.877c-3.334-0.878-5.791-3.159-7.721-5.791l-1.053-1.579
		c-1.053-1.229-1.93-2.632-2.457-4.562l-1.229-2.983c-0.702-1.579-1.228-3.158-1.754-5.089c-0.526-1.93-0.702-4.035-1.229-5.966
		c-0.175-1.229-0.351-2.105-0.351-2.632l-0.351-7.546c-0.176-1.229-0.351-2.632-0.351-3.86c-0.175-3.334-0.351-6.492-0.351-9.827
		c0-4.211,0.176-8.247,0.176-12.283c0-3.334,0-6.668,0.175-10.002c0.175-2.281,0.175-4.738,0.702-7.019
		c0.526-2.808,1.053-5.615,1.755-8.598c0.176-0.877,0.351-1.755,0.877-2.808c0.702-1.579,1.579-2.983,2.106-4.913
		c0.526-0.877,1.053-1.755,1.754-2.632c0.877-0.877,1.58-1.93,2.281-2.808c1.229-1.93,2.457-3.334,4.387-4.562
		c0.526-0.175,0.877-0.526,1.053-0.702c0.877-1.229,2.281-1.404,3.685-1.931c0.526-0.175,1.053,0,1.579,0
		c1.579-0.526,3.159-0.702,4.738-1.228l1.755-0.702c1.755-0.526,3.334-0.877,4.563-0.877c1.579,0,3.158-0.175,4.562-0.175
		c1.931-0.175,3.686-0.351,5.615-0.351c2.633,0.176,4.914,0.351,7.546,0.877c0.526,0,1.229,0.351,1.755,0.526l2.632,0.527
		c0.878,0.175,1.229,0.526,1.229,1.403c0,2.808,0,5.615,0.176,8.423v1.053c0,0.526,0,0.702-0.176,0.877
		c-1.229,1.579-1.053,3.158-0.877,5.089v0.526c-0.526,0.526-1.054,0.702-1.229,1.579c-0.176,0.702-0.702,1.229-1.755,1.404
		c-0.526-0.175-1.229-0.175-2.281-0.175c-2.105-0.176-4.036-0.176-6.142,0.351c-1.229,0.526-2.632,0.351-3.86,0.351
		c-1.404,0.175-2.633,0.351-4.036,0.877c-0.176,0.175-0.176,0.175-0.351,0.175c-3.334,0.527-5.967,2.281-8.599,3.861
		c-1.404,0.877-2.457,1.93-3.685,2.808c-0.526,0.526-0.702,1.053-0.877,1.579l-0.526,2.808l-0.526,6.142
		c-0.175,2.105,0,4.036-0.526,6.142c-0.175,1.931,0,3.51-0.175,5.439v0.176c0.526,4.036,0,7.721,0.702,11.757
		c0.176,0.176,0.176,0.176,0,0.176c-0.526,1.579,0.176,2.983,0.176,4.913c0.175,0.526,0,0.878,0,1.404c0,1.403,0,2.808,0.175,4.211
		c0.175,0.702,0.175,1.579,0.175,2.281c0,2.281,0.176,4.212,0.702,6.317c0.175,1.229,0.526,2.105,0.702,2.983
		c0.527,1.228,0.527,2.105,1.053,2.982c0.526,1.404,1.053,2.105,2.281,2.808c1.754,1.229,3.861,1.931,6.493,2.281
		c0.351,0.176,0.877,0.176,1.403,0.176c0.527,0.175,1.229,0,1.931-0.176c1.229-0.526,2.105-0.526,3.334-1.053
		c0.878-0.351,1.404-0.877,1.404-1.755c0-0.351,0.175-0.702,0.351-1.229c0.526-0.701,0.526-1.579,0.526-2.281
		c0-1.579-0.176-3.158-0.351-4.737V96.12c-0.176-1.93-0.176-3.509-0.702-5.439h-1.579c-2.281,0.702-4.738,0.702-7.02,0.702h-4.211
		c-0.877-0.176-1.579-0.352-2.457-0.878c0.175-4.387,0-8.949-0.702-12.985c0.175-0.526,0.702-1.053,1.404-1.228
		c1.229-0.526,2.106-1.229,2.457-2.106c0.176-0.351,0.527-0.526,1.229-0.526c1.579,0.526,2.457-0.526,3.686-1.403
		c0.877-0.878,1.579-1.229,2.281-1.229c0.526,0,0.701,0,0.877-0.176c1.579-0.526,2.983-0.526,4.562-0.526
		c1.931,0,3.334-0.351,5.265,0.176h2.456c2.633,0,4.562,0.176,7.194,0.351c1.229,2.633,1.404,5.44,1.931,8.072
		c0,0.526,0.176,1.403,0.351,2.281c0.526,2.281,0.702,4.562,0.878,6.844c0.526,2.281,0.351,4.562-0.176,6.668l-0.526,3.86
		c-0.526,3.334-1.229,6.317-2.808,9.125c-0.877,1.579-1.931,2.982-3.158,4.211c-1.229,1.404-2.457,2.632-3.86,3.86
		C70.036,117.002,68.982,117.704,68.105,118.23z M24.412,71.203c0.176-1.58-0.175-2.983-1.053-4.212c0,1.931-0.176,3.159,0,4.562
		C24.061,71.554,24.412,71.378,24.412,71.203z M25.64,79.626c-0.526-4.212-0.702-5.265-1.404-6.142
		c-0.877,1.228-0.877,2.632-0.877,4.211C24.587,77.695,25.289,78.397,25.64,79.626z M23.534,63.131
		c0.877,0.526,1.755,0.877,2.632,1.579c-0.526-2.808-1.579-4.737-2.457-7.37C23.183,59.271,23.534,61.201,23.534,63.131z
		 M25.464,52.076c-0.526-1.229-0.526-2.457-1.404-3.861c-0.526,1.93-0.351,3.51-0.351,5.44c1.228,0.526,1.754,1.404,2.983,2.281
		C26.518,54.533,25.991,53.304,25.464,52.076z M37.397,122.091c-1.229-1.229-1.93-2.457-3.159-3.86
		c-0.526-0.526-0.877-1.053-1.579-1.579c-0.176,0-0.351-0.176-0.702-0.526c-0.175-0.702-0.351-1.229-0.877-1.931
		c-0.175-0.526-0.175-1.229-0.702-1.755s-1.053-1.229-1.229-2.281l-1.754-6.844c-0.527-1.93-0.702-3.509-1.229-5.439l-0.351-1.229
		l-1.053-3.685c-0.175-0.176-0.351-0.351-0.351-0.526c-0.175,1.229-0.351,2.105-0.175,2.632c0.175,2.281,0.702,4.738,1.228,7.02
		c0.526,2.982,1.053,5.79,2.457,8.423c0.175,0.526,0.351,0.701,0.351,0.701c0.877,3.334,2.632,5.791,4.738,8.072
		c0.526,0.526,0.351,0.877,0.877,1.053c1.229,0.702,1.58,1.404,2.808,2.105c0.526,0.527,0.702,0.176,1.58,0.702L37.397,122.091z
		 M24.938,43.478c-0.526,1.229-0.877,1.93-0.702,3.159c0.526-0.175,0.877-0.526,1.579-0.702
		C25.289,45.057,25.464,44.18,24.938,43.478z M24.587,82.96v1.229V82.96z M25.289,40.319c0.877-0.175,1.053,0.877,1.755,0.877
		c-0.176-1.228-0.351-2.105-1.053-2.983C25.815,39.091,25.64,39.792,25.289,40.319z M31.606,99.104v2.983
		c0,0.175,0.176,0.351,0.176,0.526c0,0.877-0.176,1.93,0,2.808c0.175,0.877,0.702,1.755,1.229,2.632
		c0.526,0.877,0.702,1.755,1.228,2.457c0.175,0.526,0.526,0.877,0.877,0.877v-0.176c-1.229-2.982-2.281-5.615-3.159-8.949
		c-0.175,0-0.175,0-0.351-0.175C32.133,101.209,31.606,100.332,31.606,99.104c0-0.877-0.175-1.579-0.351-2.457
		c-0.176-1.228-0.526-2.632-0.526-3.86c0-2.632,0-4.913-0.176-7.545c-0.526-3.51-0.526-6.844-1.053-10.354
		c0-0.526-0.175-1.403-0.351-2.281c-0.175-0.526-0.351-0.702-0.351-0.702c-0.526-0.175-0.877-0.701-1.053-1.579
		c-0.175-1.403-1.053-2.456-2.281-3.685c0,0.526,0,0.877,0.176,1.053c0.877,0.526,0.877,1.229,1.404,2.105l1.404,5.439
		c0.175,0.176,0.175,0.527,0.175,1.054l0.526,6.668l0.351,5.264c0,1.229-0.175,1.931,0,2.808l1.229,5.265l0.526,0.351v2.106
		L31.606,99.104z M25.991,58.218c0,0.351,0.176,0.702,0.351,1.229l0.526,1.579l0.351,1.229l0.351,1.579
		c0.175,0.526,0.175,0.702,0.702,1.229C28.623,61.376,27.921,59.095,25.991,58.218z M27.219,93.138l0.351,0.351
		c0.175-1.229,0-2.105-0.526-3.334C26.868,91.207,26.868,92.26,27.219,93.138z M27.044,51.199v-0.176V51.199z M28.097,47.864
		c0.175-1.228,0.175-1.228-0.526-1.93L28.097,47.864z M28.272,40.319c0.526-0.877,0.526-0.877,0-1.579V40.319z M28.272,99.104
		c0.176,0.702,0,1.404,0.526,1.931C28.974,100.156,28.974,100.332,28.272,99.104z M28.623,34.704v0.702
		c0.175,0.175,0.175,0.351,0.175,0.351c0.176-0.176,0.351-0.351,0.351-0.351s0-0.175,0-0.702c-0.175,0-0.175,0-0.175-0.175
		C28.798,34.704,28.798,34.704,28.623,34.704z M28.623,67.869h0.351v-0.702h-0.351V67.869z M56.699,82.608
		c1.229-0.175,2.457-0.175,3.686-0.175s1.93,0,3.158-0.176c1.404-0.526,2.983-0.176,4.387-0.351c0.526-0.176,0.878,0,0.878,0.701
		v0.702c0,1.229-0.176,2.105-0.176,3.334v8.423c-0.176,2.808-0.351,5.44-1.579,8.072c-1.579,2.983-3.51,5.264-6.844,6.142
		c-0.526,0.176-0.877,0.351-1.053,0.351c-1.229,0.526-2.105,0.702-3.334,0.878c-0.702,0.175-1.579,0-2.808-0.176
		c-2.105-0.526-4.036-0.702-5.966-2.105c-0.176-0.176-0.176-0.176-0.351-0.176c-1.755-0.877-2.983-2.105-3.685-4.036
		c-0.702-1.93-1.229-3.86-1.579-6.142c-0.877-3.51-1.053-7.194-1.229-10.879c-0.176-2.808,0.351-5.615-0.176-8.423
		c-0.526-2.106-0.351-4.212-0.351-6.317c-0.176-1.931-0.176-3.334-0.176-5.265c0-0.877-0.175-1.755-0.175-2.632l0.526-8.773
		c0.175-2.633,0.702-4.563,0.702-7.195c0.175-2.632,0.877-4.562,1.053-7.195c0-0.175,0-0.351,0.175-0.351
		c0.877-2.281,1.58-4.738,2.281-7.02c0.526-1.228,0.877-2.457,2.106-3.334c0.877-0.877,1.93-1.404,2.808-2.105
		c2.632-1.579,3.86-2.281,6.668-2.808h0.352c2.982-0.877,5.79-1.053,9.124-0.526c1.931,0.526,3.51,0.526,5.44,0
		c1.228,0.702,2.632,0.702,4.035,0.526c0.352-2.983,0.352-5.615-0.175-8.248c-0.526-0.175-0.878-0.351-1.053-0.351
		c-1.404-0.526-2.983-0.526-4.388-1.053c-2.632-0.526-5.439-0.702-8.247-0.526c-2.632,0.176-4.913,0-7.545,0.526
		c-1.229,0-2.457,0.176-3.686,0.702c-0.877,0.175-1.58,0.702-2.457,0.877c-1.931,0.526-3.51,1.228-5.44,2.105
		c-2.281,1.404-4.387,2.632-6.317,4.738l-1.404,1.755c-1.228,1.93-1.93,4.211-2.457,6.493c-0.526,3.334-1.053,6.668-1.228,10.178
		c0,3.509-0.351,7.019-0.351,10.528c0,1.229,0.175,2.106-0.351,3.334c0.526,1.93,0.175,3.86,0.877,5.79
		c0,0.526,0.175,0.878,0.526,0.878c0.175,0.175,0.351,0.526,0.351,0.877l-0.351,1.931c-0.526,1.93-0.702,3.685-0.175,5.615
		c0.526,1.93,0.702,3.158,0.877,5.089c0,1.93,0.351,3.509,0.527,5.089l0.351,5.264v5.44c0.176,0.526,0,1.228,0.176,1.754
		c0.175,1.931,0.351,3.686,0.877,5.615c0.175,1.404,0.351,2.633,0.877,4.036l0.877,2.457c0.527,0.702,0.351,1.403,0.527,2.105
		c0.526,1.931,1.579,3.686,2.808,5.265c0.175,0.526,0.702,1.053,1.403,1.755l4.212,2.632c0.351,0.351,0.877,0.526,1.403,0.526
		l4.036,0.526c2.106,0.176,4.211,0.176,6.318,0c0.526-0.176,1.053-0.702,1.93-0.526c0.526,0,1.404-0.351,2.105-0.351
		c0.878,0.175,1.58,0,2.457-0.526c1.229-0.526,2.105-1.229,3.334-1.755c2.281-1.229,4.212-2.808,6.142-4.738
		c1.931-2.105,3.159-4.211,4.036-6.492c0.702-1.931,1.403-3.86,1.579-5.967c0-1.229,0.352-2.105,0.526-3.334
		c0.352-2.632,0.526-4.913,0.352-6.844l-1.404-10.353c-0.176-1.404-0.351-2.808-0.877-4.212c-0.176-0.526-0.176-0.877-0.878-1.403
		l-2.808-0.526c-0.702,0-1.403-0.176-2.105-0.176c-1.229,0-2.281,0.176-3.51,0c-2.281-0.176-4.387-0.176-6.668,0
		c-1.403,0.176-2.457,0.352-3.685,1.053c-1.229,2.633-1.404,5.089-1.931,7.721c0.878,0.176,1.229,0.702,1.229,1.58
		C55.998,82.608,56.349,82.608,56.699,82.608z M30.203,29.791c-0.176,0.175-0.176,0.175,0,0.175c0,0.176,0,0.176-0.176,0.176h0.176
		V29.791z M31.255,108.93c0,0.527,0.175,0.878,0.526,0.878h0.175c0.176-0.176,0.176-0.526,0-1.053c0-0.176-0.175-0.526-0.526-0.878
		C31.431,108.403,31.255,108.755,31.255,108.93z M34.765,115.599c0.526,0.877,0.702,2.105,1.93,2.808l0.526-1.053
		c0.176-0.352,0.176-0.702,0-0.878c-0.877-1.229-1.228-2.281-2.457-3.158C34.589,114.194,34.589,114.896,34.765,115.599z
		 M39.152,117.178c0.175,0.176,0,0.526,0.175,0.526c0.526,0.526,0.877,0.877,1.229,1.053c1.579,0.877,2.105,2.281,1.754,4.212
		c-0.175,0.351-0.175,0.701,0,0.877c0.526,0.176,0.877,0.351,1.404,0.351c0.351,0,0.527,0,0.527-0.175
		c0.175-0.176,0.175-0.526,0-0.878c0-0.526-0.351-0.351-0.527-0.877c-0.526-0.526-0.877-0.878-1.053-1.404
		c0.175-0.526,0.351-0.877,0.351-1.053C41.784,118.581,40.38,117.704,39.152,117.178z M40.205,120.512
		c-0.176-0.352-0.526-0.526-0.702-0.352c-0.175,0-0.175,0.176-0.175,0.527c0.175,0.701,0.702,1.228,1.229,1.579
		C40.731,121.74,40.556,121.038,40.205,120.512z M48.979,123.144c-0.527-0.877-0.702-1.755-1.229-2.456
		c-1.93-0.527-1.755-0.352-2.632-0.176C45.995,122.091,46.873,123.67,48.979,123.144z M47.575,79.45
		c0.351-0.877,0.351-1.403,0.175-1.755C47.575,78.222,47.399,78.573,47.575,79.45z M48.276,31.194
		c0.702,0.351,0.877,0.877,0.526,1.579c-0.526,0.877-0.351,1.755-0.877,2.632c-0.175,0.526-0.702,0.526-0.175,1.053
		c0.702-1.228,1.404-1.93,1.579-3.159c0-0.526,0.176-1.404,0.351-2.281l0.351-1.053c-1.229,0.176-1.053,0.176-1.93,0.877
		C48.276,31.019,48.276,31.194,48.276,31.194z M47.75,80.152v-0.176c-0.175,0-0.175,0-0.175,0.176H47.75z M47.925,84.89
		c0.176,0.526,0.176,1.404,0.176,2.457c0.175,0.702-0.176,1.403,0.351,2.105c0.527,0.526,1.229,0.176,1.931,0.176
		C50.383,87.697,49.505,86.118,47.925,84.89z M49.329,37.161c-0.351,0.526-0.526,1.053-0.702,1.579
		c0.702-0.526,1.404-0.526,1.93-1.053L49.329,37.161z M50.909,34.704c0.526-0.702,0.877-1.579,0.877-2.632
		C51.084,32.949,50.733,33.826,50.909,34.704z M52.137,78.047c0.527,0.175,0.352,0.351,0.878,0.526
		c0.526-1.229,0.702-2.281,0.526-3.159c-1.229,0.702-2.457,0.526-2.457,2.457C51.61,77.871,51.962,77.871,52.137,78.047z
		 M53.015,123.319c0.526,0,0.702-0.176,0.526-0.702c-0.176-0.702-0.526-1.229-0.877-1.579c-0.527,0-1.054,0-1.404,0.176
		C51.26,122.441,51.786,123.144,53.015,123.319z M51.962,37.161l-0.176-0.176c-0.176,0-0.176,0-0.176,0.176
		c0.176,0,0.176,0,0.176,0.175L51.962,37.161z M53.19,85.768c0.175-0.176,0.175-0.702,0.175-1.229
		c-0.175-0.351-0.526-0.526-0.701-0.526c-0.176,0-0.352,0.176-0.527,0.351l-0.351,1.755c-0.351,0.702-0.176,1.579,0.526,2.632
		C52.839,87.522,53.015,86.645,53.19,85.768z M52.312,28.387c0,0.175,0,0.175,0.176,0.351l0.176-0.176c0-0.175,0-0.175-0.176-0.351
		L52.312,28.387z M54.944,28.211c-0.701,1.931-1.228,4.036-1.579,5.966c0.176,0,0.176,0,0.352,0.176
		c1.053-2.106,1.755-4.387,2.105-6.844C55.296,27.685,55.12,27.86,54.944,28.211z M54.067,89.452v-0.175l-0.176,0.175H54.067z
		 M56.173,84.013c-0.701,0.176-1.053,0.526-0.877,1.053c0,1.053,0,1.931,0.176,2.457c0,0.175,0.175,0.351,0.351,0.526
		c0.351-0.176,0.526-0.702,0.526-1.229c-0.176-1.053,0-1.931,0.702-2.808H56.173z M56.173,121.214
		c-0.175-0.176-0.175-0.176-0.351-0.176s-0.351,0.176-0.351,0.351c-0.176,0.352,0,0.702,0.526,1.053
		C55.998,121.915,56.173,121.74,56.173,121.214z M56.875,32.949c0.526-1.229,0.526-1.229,0-1.931V32.949z M57.928,122.267
		c-0.176,0.175-0.176,0.351,0,0.526s0.526,0,0.878-0.526C58.279,122.267,58.454,121.74,57.928,122.267z M58.279,86.469v0.878
		c0,0.176,0.175,0.526,0.351,0.702c0.877-1.229,0.702-2.457,0.702-3.86c0-0.352-0.176-0.352-0.702-0.176L58.279,86.469z
		 M59.156,27.158c0.176,1.229,0,2.457,0,3.86c0,0.527,0,0.877,0.176,1.229c0,0,0.175,0.351,0.351,1.053
		c0.526-1.228,0.526-1.93,0.526-3.158c-0.176-0.526-0.176-1.053-0.176-1.755c-0.175-0.526,0.176-1.229-0.351-1.755
		C59.156,26.632,58.98,26.808,59.156,27.158z M64.069,118.933c-0.351,0-0.526,0-0.702,0.175c-0.701,0.702-1.754,0.878-2.632,1.053
		c-0.176,0-0.176,0-0.176,0.176v1.053l0.176,0.176c0,0.176,0,0.176,0.176,0.351L64.069,118.933z M63.543,83.837h-1.93
		c-0.176,0.526-0.352,1.053-0.352,1.404c0,1.053,0.352,2.105,0.878,3.334C62.841,87.171,63.367,85.592,63.543,83.837z
		 M63.017,29.088c0-0.526,0.176-0.526,0.176-1.053s-0.176-0.526-0.176-1.053c-0.176-0.175-0.351-0.351-0.526-0.351
		s-0.351,0.351-0.526,0.351c0,1.579,0,2.983,0.526,4.387L63.017,29.088z M65.298,34.177l-0.526-1.053
		c-0.176-0.526-0.526-0.702-0.702-0.877c-0.175,0.526-0.351,1.229-0.877,2.106C64.421,34.879,64.421,34.704,65.298,34.177z
		 M65.824,101.385c-0.877-1.229-0.877-1.053-1.053-2.281v-2.281c-0.526,0-0.877,0.176-0.877,0.526c0,0.878,0.175,1.755,0.175,2.632
		c0,1.58,0.176,2.983-0.351,4.562C65.122,103.666,65.122,102.262,65.824,101.385z M64.069,93.138c0,0.175,0.176,0.175,0.352,0.175
		c0-0.175,0.175-0.351,0.175-0.526c0.526-1.93,0.702-3.334,1.229-4.913c0.176-1.579,0.526-2.983,0.702-3.86
		c0-0.176-0.176-0.176-0.176-0.351h-0.702c-0.526,0.877-0.701,1.754-0.877,2.632c0,0.702-0.176,1.403-0.176,2.281L64.069,93.138z
		 M66.526,31.896c0.176-1.228,0-2.105-0.526-3.334c-0.176-0.877-0.352-0.877-0.176-1.754c-0.526,0.175-0.877,0.351-0.877,0.702
		c0.175,1.579,0.701,3.159,1.228,4.562C66.351,31.896,66.526,31.896,66.526,31.896z M66.702,94.541
		c-0.527,1.931-0.702,1.931-0.176,3.158C67.053,96.472,67.229,96.472,66.702,94.541z M69.685,31.019
		c-0.175-1.403,0.176-2.632-0.351-4.036c-0.526-0.175-1.229-0.175-2.105-0.175C68.105,29.439,68.456,30.142,69.685,31.019z
		 M68.982,33.826c0-0.175-0.175-0.702-0.701-0.526c-0.176,0.176-0.176,0.176-0.176,0.351c0,0.351,0.176,0.526,0.526,0.526
		C68.808,34.002,68.982,33.826,68.982,33.826z M71.615,29.615c-0.352,0.877-0.526,1.754-0.352,2.281
		c0.526,0.877,0,1.404-0.175,2.106c1.229,0,1.229,0,1.755-0.526c0.351-0.526,0.351-1.053,0-1.755L71.615,29.615z M73.37,28.738
		c-0.176-0.176-0.176-0.176-0.352-0.176c0.176-0.175,0.176-0.351,0.176-0.702c0-0.176,0-0.176-0.176-0.351h-0.175v0.526
		c0,0.175,0.175,0.351,0.351,0.526C73.194,28.738,73.194,28.738,73.37,28.738z"/>
</g>
</svg>
