<?xml version="1.0" encoding="utf-8"?>
<!-- Generator: Adobe Illustrator 16.0.0, SVG Export Plug-In . SVG Version: 6.00 Build 0)  -->
<!DOCTYPE svg PUBLIC "-//W3C//DTD SVG 1.1//EN" "http://www.w3.org/Graphics/SVG/1.1/DTD/svg11.dtd">
<svg version="1.1" id="Layer_1" xmlns="http://www.w3.org/2000/svg" xmlns:xlink="http://www.w3.org/1999/xlink" x="0px" y="0px"
	 width="618.167px" height="230.75px" viewBox="0 0 618.167 230.75" enable-background="new 0 0 618.167 230.75"
	 xml:space="preserve">
<path fill="#231F20" d="M613.583,212.77c0,5.326-3.225,9.646-7.201,9.646H10.783c-3.977,0-7.2-4.316-7.2-9.646V16.392
	c0-5.327,3.224-9.645,7.2-9.645h595.599c3.979,0,7.201,4.318,7.201,9.645V212.77z"/>
<path fill="none" stroke="#241F21" stroke-width="3.7285" stroke-linecap="round" stroke-linejoin="round" stroke-miterlimit="10" stroke-dasharray="0,14.3834" d="
	M23.127,210.296c0,2.394,1.317,4.541,3.41,6.019"/>
<path fill="none" stroke="#241F21" stroke-width="3.7285" stroke-linecap="round" stroke-linejoin="round" stroke-miterlimit="10" stroke-dasharray="0,14.3834" d="
	M33.317,98.452c-2.604,0-4.979,0.772-6.78,2.042"/>
<line fill="none" stroke="#FFFFFF" stroke-width="4" stroke-linecap="round" stroke-linejoin="round" stroke-dasharray="0,12.2805" x1="13.83" y1="27.819" x2="13.83" y2="209.497"/>
<line fill="none" stroke="#FFFFFF" stroke-width="4" stroke-linecap="round" stroke-linejoin="round" stroke-dasharray="0,10.5183" x1="14.917" y1="214.997" x2="604.582" y2="214.997"/>
<line fill="none" stroke="#FFFFFF" stroke-width="4" stroke-linecap="round" stroke-linejoin="round" stroke-dasharray="0,10.5183" x1="14.917" y1="13.997" x2="604.582" y2="13.997"/>
<line fill="none" stroke="#FFFFFF" stroke-width="4" stroke-linecap="round" stroke-linejoin="round" stroke-dasharray="0,12.2805" x1="603.849" y1="201.838" x2="603.849" y2="20.161"/>
<g enable-background="new    ">
	<path fill="#FFFFFF" d="M77.49,110.462c0-12.497,2.848-36.7,16.61-43.344c7.91-3.796,28.474-2.215,28.474,10.44
		c0,1.898-0.791,3.955-3.48,3.955c-5.695,0-7.751-8.542-15.819-8.542h-0.633C87.931,73.762,85.4,95.908,85.4,107.772v3.164
		c0.791,15.818,0.791,27.524,4.113,42.395c1.582,7.435,5.853,15.344,15.028,15.344h0.791c14.395-0.791,14.87-19.615,14.395-28.632
		l-1.266-23.412c-4.587,0-9.175,1.266-14.237,0.791c-1.424-0.949-1.898-4.903-1.898-5.062c0-4.746,10.915-3.797,21.197-3.955
		c4.746,1.266,4.113,9.175,4.587,18.982v1.582c0.949,17.242,2.373,46.507-20.564,47.614c-1.107,0-2.056,0.158-3.164,0
		C83.027,177.85,77.49,151.749,77.49,110.462z"/>
	<path fill="#FFFFFF" d="M144.405,165.985c0-35.592,1.266-71.501,2.215-107.093c0.316-7.276,3.005-7.276,9.333-7.276h1.582
		c14.553,0,23.886,9.491,23.886,23.411v1.74c0,11.548-3.005,24.994-13.446,32.112c0.791,0.791,4.429,5.062,5.062,6.169
		c7.118,9.334,5.378,31.954,6.169,42.869c0,0.949,0.949,8.226,0.949,9.175v1.266c0,2.689-2.531,3.006-4.587,3.006h-0.158
		c-1.74,0-3.796,0-4.429-2.215c-0.158-5.22-1.582-29.423-1.898-34.801c-0.633-7.752-2.215-18.351-11.864-18.351h-2.531
		c-0.316,1.424-0.949,7.752-0.949,9.175c-0.158,1.424-0.949,36.542-1.107,49.987c0,3.006,0.475,6.328-3.48,6.328
		c-1.74,0-3.638-0.633-4.746-2.215V165.985z M156.744,104.767c11.231,0,15.502-20.723,15.502-27.999
		c0-7.435-3.48-16.926-12.497-16.926c-2.373,0-3.955,1.424-3.955,4.112c0.158,13.763-1.107,25.311-1.107,39.39
		C154.687,104.608,155.794,104.767,156.744,104.767z"/>
	<path fill="#FFFFFF" d="M226.665,52.249c28.315,3.163,24.203,70.552,22.621,91.591c-1.107,11.547-6.96,31.637-22.779,31.637
		c-28,0-29.265-47.772-29.265-66.28C197.242,89.106,198.666,52.249,226.665,52.249z M206.259,108.563
		c0,46.349,8.542,59.004,19.773,59.004c15.502,0,15.661-40.18,15.661-50.146v-0.633c0-12.181-3.322-56.473-18.35-56.473
		c-11.864,0-16.926,26.417-16.926,34.326C206.259,99.705,206.259,104.135,206.259,108.563z"/>
	<path fill="#FFFFFF" d="M305.762,59.842c0,5.536-9.175,4.429-11.39,4.429h-0.949c-15.344,0-22.146,31.796-22.146,49.672
		c0,20.248,1.265,34.643,15.186,46.19c6.802,5.694,17.243-0.158,19.616,4.113c3.164,5.536-2.689,7.435-7.751,7.435
		c-35.909-0.791-41.445-48.405-34.168-79.252c3.796-16.452,13.604-38.44,34.168-38.44C301.649,53.988,305.762,56.203,305.762,59.842
		z"/>
	<path fill="#FFFFFF" d="M321.582,64.587c0-2.847,2.689-5.536,5.536-5.536h24.994c0.949,0,4.113,2.373,4.271,3.164
		c0.158,0.316,0.158,0.475,0.158,0.791c0,3.163-4.271,4.587-6.803,4.587h-18.982l0.791,52.519l17.084-2.531h0.791
		c7.435,0,4.588,7.276-1.74,8.226l-15.818,2.373l-0.475,41.287c1.424,0.158,6.802,0.158,8.226,0.158
		c10.599,0,18.35-3.639,18.824,3.639c0.316,5.378-35.117,4.745-35.117,1.739L321.582,64.587z"/>
	<path fill="#FFFFFF" d="M374.418,165.985c0-35.592,1.266-71.501,2.215-107.093c0.316-7.276,3.006-7.276,9.333-7.276h1.582
		c14.553,0,23.887,9.491,23.887,23.411v1.74c0,11.548-3.006,24.994-13.446,32.112c0.791,0.791,4.429,5.062,5.062,6.169
		c7.119,9.334,5.379,31.954,6.17,42.869c0,0.949,0.949,8.226,0.949,9.175v1.266c0,2.689-2.531,3.006-4.588,3.006h-0.158
		c-1.74,0-3.796,0-4.429-2.215c-0.158-5.22-1.582-29.423-1.898-34.801c-0.633-7.752-2.215-18.351-11.864-18.351h-2.531
		c-0.316,1.424-0.949,7.752-0.949,9.175c-0.158,1.424-0.949,36.542-1.107,49.987c0,3.006,0.475,6.328-3.479,6.328
		c-1.74,0-3.639-0.633-4.746-2.215V165.985z M386.757,104.767c11.231,0,15.502-20.723,15.502-27.999
		c0-7.435-3.479-16.926-12.496-16.926c-2.373,0-3.955,1.424-3.955,4.112c0.158,13.763-1.107,25.311-1.107,39.39
		C384.701,104.608,385.808,104.767,386.757,104.767z"/>
	<path fill="#FFFFFF" d="M431.527,59.684c1.107-3.164,1.898-3.322,5.22-3.322c4.588,0,4.588,2.057,4.588,6.645
		c0,0.475-0.158,2.53-0.158,2.847l-4.746,108.201c-0.316,6.96-9.175,7.593-9.175,3.005L431.527,59.684z"/>
	<path fill="#FFFFFF" d="M457.153,64.587c0-2.847,2.689-5.536,5.537-5.536h24.993c0.949,0,4.113,2.373,4.271,3.164
		c0.158,0.316,0.158,0.475,0.158,0.791c0,3.163-4.271,4.587-6.803,4.587h-18.982l0.791,52.519l17.085-2.531h0.79
		c7.436,0,4.588,7.276-1.739,8.226l-15.819,2.373l-0.475,41.287c1.424,0.158,6.803,0.158,8.226,0.158
		c10.599,0,18.351-3.639,18.825,3.639c0.316,5.378-35.118,4.745-35.118,1.739L457.153,64.587z"/>
	<path fill="#FFFFFF" d="M510.942,149.692c6.327,1.898,0.315,15.818,8.226,20.406h0.949c8.858,0,11.389-12.181,11.389-18.666
		c0-8.7-0.632-18.033-4.271-26.26c-7.435-17.084-23.412-31.32-23.412-50.937c0-8.858,5.379-23.569,16.294-23.569
		c6.96,0,18.508,5.536,18.508,13.762c0,3.006-0.949,4.746-4.113,4.746c-6.169,0-4.271-9.491-12.972-9.491
		c-8.067,0-8.7,11.231-8.7,16.768c0,15.978,13.446,27.209,20.564,40.496c6.486,12.181,9.808,29.897,6.012,41.92
		c-2.531,8.226-9.649,19.457-19.299,19.457c-11.706,0-15.345-14.553-15.345-24.044C504.772,151.591,508.411,148.901,510.942,149.692
		z"/>
</g>
</svg>
