<?xml version="1.0" encoding="utf-8"?>
<!-- Generator: Adobe Illustrator 16.0.0, SVG Export Plug-In . SVG Version: 6.00 Build 0)  -->
<!DOCTYPE svg PUBLIC "-//W3C//DTD SVG 1.1//EN" "http://www.w3.org/Graphics/SVG/1.1/DTD/svg11.dtd">
<svg version="1.1" id="Layer_1" xmlns="http://www.w3.org/2000/svg" xmlns:xlink="http://www.w3.org/1999/xlink" x="0px" y="0px"
	 width="618.167px" height="230.75px" viewBox="0 0 618.167 230.75" enable-background="new 0 0 618.167 230.75"
	 xml:space="preserve">
<path fill="#231F20" d="M613.583,212.77c0,5.326-3.225,9.646-7.201,9.646H10.783c-3.977,0-7.2-4.316-7.2-9.646V16.392
	c0-5.327,3.224-9.645,7.2-9.645h595.599c3.979,0,7.201,4.318,7.201,9.645V212.77z"/>
<path fill="none" stroke="#241F21" stroke-width="3.7285" stroke-linecap="round" stroke-linejoin="round" stroke-miterlimit="10" stroke-dasharray="0,14.3834" d="
	M23.127,210.296c0,2.394,1.317,4.541,3.41,6.019"/>
<path fill="none" stroke="#241F21" stroke-width="3.7285" stroke-linecap="round" stroke-linejoin="round" stroke-miterlimit="10" stroke-dasharray="0,14.3834" d="
	M33.317,98.452c-2.604,0-4.979,0.772-6.78,2.042"/>
<line fill="none" stroke="#FFFFFF" stroke-width="4" stroke-linecap="round" stroke-linejoin="round" stroke-dasharray="0,12.2805" x1="13.83" y1="27.819" x2="13.83" y2="209.497"/>
<line fill="none" stroke="#FFFFFF" stroke-width="4" stroke-linecap="round" stroke-linejoin="round" stroke-dasharray="0,10.5183" x1="14.917" y1="214.997" x2="604.582" y2="214.997"/>
<line fill="none" stroke="#FFFFFF" stroke-width="4" stroke-linecap="round" stroke-linejoin="round" stroke-dasharray="0,10.5183" x1="14.917" y1="13.997" x2="604.582" y2="13.997"/>
<line fill="none" stroke="#FFFFFF" stroke-width="4" stroke-linecap="round" stroke-linejoin="round" stroke-dasharray="0,12.2805" x1="603.849" y1="201.838" x2="603.849" y2="20.161"/>
<g enable-background="new    ">
	<path fill="#FFFFFF" d="M67.595,119.548c-0.91-22.935-3.458-51.33-3.458-72.444c0-4.551,13.105-4.187,18.384-4.551
		c6.917,0,16.018-2.73,16.018,6.734c0,0.729,0,2.73-24.937,2.73l2.366,35.677l16.564-0.183c2.73,0,4.732,3.641,4.732,5.825
		c0,4.914-15.836,2.912-20.75,3.641l0.546,10.557c1.274,26.211,1.092,33.856,1.092,60.067c0,2.549-1.638,4.551-4.187,4.551
		c-1.638,0-4.55-0.546-5.278-2.366C68.688,159.411,67.959,129.741,67.595,119.548z"/>
	<path fill="#FFFFFF" d="M120.196,149.764l-1.092,1.092l-3.094,20.568c-0.364,2.73-0.182,10.558-5.461,10.558
		c-2.366,0-4.004-4.732-4.004-6.553c18.93-131.966,19.112-132.33,19.112-132.33c0.91-3.458,2.184-8.555,6.735-8.555
		c2.002,0,4.551,0.91,5.643,2.729l1.456,3.823c10.558,41.683,15.472,84.458,20.387,127.415l1.092,11.831
		c0,0.183-0.182,0.183-0.182,0.364c-1.274,3.459-2.002,4.915-5.461,4.915h-0.546c-1.092,0-2.912,0-3.094-1.274l-4.551-34.584
		H120.196z M122.926,138.479l22.753,0.546L133.483,54.02L122.926,138.479z"/>
	<path fill="#FFFFFF" d="M164.607,41.097c1.092-1.456,6.917-3.641,8.373-2.185c0.728,0.364,3.276,2.73,3.458,3.458l15.472,112.126
		c6.007-33.31,12.377-75.357,18.202-108.667c0-6.188,2.548-7.099,5.825-7.099c2.73,0,4.551,0.363,5.825,3.64
		c-7.827,30.034-12.377,61.342-17.474,91.922l-7.099,46.779c-1.274,3.276-3.094,3.458-5.643,3.458c-2.002,0-4.004,0-4.733-2.366
		C177.167,136.658,173.345,87.512,164.607,41.097z"/>
	<path fill="#FFFFFF" d="M265.809,42.37c32.582,3.641,27.85,81.183,26.029,105.392c-1.274,13.287-8.009,36.404-26.211,36.404
		c-32.218,0-33.674-54.971-33.674-76.268C231.953,84.781,233.591,42.37,265.809,42.37z M242.328,107.17
		c0,53.333,9.829,67.895,22.752,67.895c17.838,0,18.021-46.233,18.021-57.701v-0.728c0-14.016-3.823-64.982-21.115-64.982
		c-13.652,0-19.477,30.398-19.477,39.499C242.328,96.978,242.328,102.073,242.328,107.17z"/>
	<path fill="#FFFFFF" d="M311.494,173.244c0-40.955,1.456-82.273,2.549-123.229c0.363-8.373,3.458-8.373,10.738-8.373h1.82
		c16.746,0,27.485,10.921,27.485,26.939v2.002c0,13.287-3.458,28.76-15.472,36.95c0.91,0.91,5.097,5.825,5.825,7.099
		c8.19,10.739,6.188,36.769,7.099,49.328c0,1.093,1.092,9.466,1.092,10.558v1.456c0,3.095-2.912,3.459-5.278,3.459h-0.182
		c-2.003,0-4.369,0-5.097-2.549c-0.182-6.007-1.82-33.856-2.185-40.045c-0.728-8.919-2.548-21.114-13.651-21.114h-2.912
		c-0.365,1.638-1.093,8.919-1.093,10.557c-0.183,1.639-1.093,42.048-1.274,57.52c0,3.458,0.547,7.281-4.004,7.281
		c-2.002,0-4.187-0.729-5.461-2.549V173.244z M325.691,102.802c12.924,0,17.839-23.845,17.839-32.218
		c0-8.555-4.005-19.477-14.38-19.477c-2.73,0-4.551,1.639-4.551,4.732c0.182,15.836-1.273,29.124-1.273,45.324
		C323.326,102.62,324.599,102.802,325.691,102.802z"/>
	<path fill="#FFFFFF" d="M377.202,50.926c1.274-3.641,2.185-3.822,6.007-3.822c5.278,0,5.278,2.366,5.278,7.645
		c0,0.546-0.182,2.912-0.182,3.276l-5.461,124.503c-0.364,8.009-10.557,8.737-10.557,3.459L377.202,50.926z"/>
	<path fill="#FFFFFF" d="M414.878,53.838c-11.285,0.729-16.382,0.546-16.745-2.548c0.363-6.189,0.363-8.373,19.294-7.281h15.29
		c4.004,0.182,10.739,0.728,10.739,6.007c0,1.638-2.003,3.458-3.641,3.458h-15.29l3.459,115.584c0,1.639-3.641,2.549-4.733,2.549
		c-1.092,0-4.732-0.91-4.732-2.549L414.878,53.838z"/>
	<path fill="#FFFFFF" d="M451.648,56.568c0-3.276,3.094-6.371,6.37-6.371h28.76c1.092,0,4.732,2.73,4.914,3.641
		c0.183,0.364,0.183,0.546,0.183,0.91c0,3.641-4.915,5.278-7.827,5.278h-21.843l0.91,60.432l19.658-2.912h0.91
		c8.556,0,5.279,8.373-2.002,9.465l-18.202,2.73l-0.546,47.508c1.638,0.182,7.827,0.182,9.465,0.182
		c12.195,0,21.114-4.187,21.661,4.187c0.363,6.188-40.409,5.461-40.409,2.003L451.648,56.568z"/>
	<path fill="#FFFFFF" d="M513.536,154.496c7.281,2.185,0.364,18.202,9.465,23.48h1.093c10.193,0,13.105-14.016,13.105-21.479
		c0-10.011-0.729-20.75-4.915-30.216c-8.555-19.658-26.938-36.04-26.938-58.61c0-10.193,6.188-27.122,18.748-27.122
		c8.009,0,21.296,6.371,21.296,15.836c0,3.459-1.092,5.461-4.732,5.461c-7.099,0-4.914-10.921-14.926-10.921
		c-9.283,0-10.011,12.923-10.011,19.294c0,18.385,15.472,31.308,23.663,46.598c7.463,14.016,11.285,34.402,6.916,48.236
		c-2.912,9.465-11.103,22.389-22.206,22.389c-13.47,0-17.656-16.746-17.656-27.668C506.437,156.681,510.624,153.586,513.536,154.496
		z"/>
</g>
</svg>
