<?xml version="1.0" encoding="utf-8"?>
<!-- Generator: Adobe Illustrator 16.0.0, SVG Export Plug-In . SVG Version: 6.00 Build 0)  -->
<!DOCTYPE svg PUBLIC "-//W3C//DTD SVG 1.1//EN" "http://www.w3.org/Graphics/SVG/1.1/DTD/svg11.dtd">
<svg version="1.1" id="Layer_1" xmlns="http://www.w3.org/2000/svg" xmlns:xlink="http://www.w3.org/1999/xlink" x="0px" y="0px"
	 width="618.167px" height="230.75px" viewBox="0 0 618.167 230.75" enable-background="new 0 0 618.167 230.75"
	 xml:space="preserve">
<g>
	<path fill="#231F20" d="M612.318,214.771c0,5.326-3.225,9.646-7.201,9.646H9.518c-3.977,0-7.2-4.317-7.2-9.646V18.395
		c0-5.327,3.224-9.645,7.2-9.645h595.599c3.979,0,7.201,4.318,7.201,9.645V214.771z"/>
	
		<path fill="none" stroke="#241F21" stroke-width="3.7285" stroke-linecap="round" stroke-linejoin="round" stroke-miterlimit="10" stroke-dasharray="0,14.3834" d="
		M21.861,212.299c0,2.393,1.317,4.541,3.41,6.018"/>
	
		<path fill="none" stroke="#241F21" stroke-width="3.7285" stroke-linecap="round" stroke-linejoin="round" stroke-miterlimit="10" stroke-dasharray="0,14.3834" d="
		M32.051,100.455c-2.604,0-4.979,0.772-6.78,2.042"/>
	
		<line fill="none" stroke="#FFFFFF" stroke-width="4" stroke-linecap="round" stroke-linejoin="round" stroke-dasharray="0,12.2805" x1="12.564" y1="29.822" x2="12.564" y2="211.5"/>
	
		<line fill="none" stroke="#FFFFFF" stroke-width="4" stroke-linecap="round" stroke-linejoin="round" stroke-dasharray="0,10.5183" x1="13.651" y1="217" x2="603.316" y2="217"/>
	
		<line fill="none" stroke="#FFFFFF" stroke-width="4" stroke-linecap="round" stroke-linejoin="round" stroke-dasharray="0,10.5183" x1="13.651" y1="16" x2="603.316" y2="16"/>
	
		<line fill="none" stroke="#FFFFFF" stroke-width="4" stroke-linecap="round" stroke-linejoin="round" stroke-dasharray="0,12.2805" x1="602.583" y1="203.841" x2="602.583" y2="22.164"/>
</g>
<g>
	<path fill="#FFFFFF" d="M136.312,51.249c2.62,0,4.748,3.274,5.403,5.73c1.31,37.002,1.146,74.496,4.421,111.662
		c4.912-1.31,13.262-3.438,19.647-3.438c2.947,0,5.567,0.818,5.567,4.094c0,2.128-0.491,3.766-3.275,4.748
		c-5.566,1.964-12.934,1.637-18.665,3.274c-2.128,0.491-4.421,2.128-7.041,2.128c-1.964,0-4.748-2.292-5.075-4.42
		c-1.965-19.647-1.146-40.769-2.128-60.088l-2.128-40.44V53.705C133.856,51.903,134.838,51.249,136.312,51.249z"/>
	<path fill="#FFFFFF" d="M208.023,51.576c29.307,3.274,25.05,73.021,23.413,94.798c-1.146,11.952-7.204,32.745-23.577,32.745
		c-28.979,0-30.289-49.445-30.289-68.602C177.57,89.724,179.043,51.576,208.023,51.576z M186.902,109.863
		c0,47.972,8.841,61.07,20.466,61.07c16.045,0,16.209-41.587,16.209-51.901v-0.654c0-12.607-3.438-58.451-18.992-58.451
		c-12.279,0-17.519,27.343-17.519,35.529C186.902,100.694,186.902,105.278,186.902,109.863z"/>
	<path fill="#FFFFFF" d="M249.278,118.213c0-20.466,2.456-62.38,29.962-63.854l1.31-0.164c6.385,0,18.173,4.093,18.173,10.315
		c0,0.655-0.163,1.31-0.491,2.128c-3.274,7.859-8.841-3.602-18.337-4.912h-0.818c-15.063,1.965-20.466,22.103-20.466,49.445v3.602
		l0.327,17.847c0.655,10.97,4.093,37.002,18.829,37.002h0.655c10.806-0.655,12.443-22.758,12.935-30.453
		c0.654-5.566,1.474-11.297,1.146-17.355c-0.491-10.314-18.665,0.818-19.156-7.858c0-3.766,4.584-4.584,7.368-4.584l2.947-0.164
		c3.93-0.164,18.01-0.491,18.01,6.221v3.111c-0.164,5.075-1.474,23.249-1.801,25.869c-1.474,14.408-4.748,32.581-22.267,33.4h-1.31
		c-25.05,0-26.851-39.786-27.015-57.305V118.213z"/>
	<path fill="#FFFFFF" d="M343.418,51.576c29.307,3.274,25.05,73.021,23.413,94.798c-1.146,11.952-7.204,32.745-23.577,32.745
		c-28.979,0-30.289-49.445-30.289-68.602C312.965,89.724,314.439,51.576,343.418,51.576z M322.297,109.863
		c0,47.972,8.842,61.07,20.466,61.07c16.046,0,16.209-41.587,16.209-51.901v-0.654c0-12.607-3.438-58.451-18.992-58.451
		c-12.279,0-17.519,27.343-17.519,35.529C322.297,100.694,322.297,105.278,322.297,109.863z"/>
	<path fill="#FFFFFF" d="M409.561,173.88c-1.146,0-2.456-0.164-3.93-0.327c-20.139-2.456-21.612-52.229-23.249-109.534l-0.328-8.022
		v-0.819c0-3.602,8.678-3.438,9.824-0.164c2.783,4.748-4.421,111.334,18.01,111.334c5.73,0,7.531-9.333,7.695-13.753
		c0.491-20.303,0.164-65.982-0.655-97.582c0.819-2.62,1.801-2.947,4.748-2.947c2.62,0,4.912,0.491,5.076,3.275
		c0.818,28.816-0.491,57.959,0.327,88.085C426.752,157.671,426.588,173.88,409.561,173.88z"/>
	<path fill="#FFFFFF" d="M455.893,61.891c-10.151,0.655-14.735,0.491-15.062-2.292c0.327-5.567,0.327-7.532,17.354-6.549h13.754
		c3.602,0.164,9.659,0.655,9.659,5.403c0,1.473-1.801,3.111-3.274,3.111h-13.753l3.11,103.966c0,1.474-3.274,2.293-4.257,2.293
		s-4.257-0.819-4.257-2.293L455.893,61.891z"/>
</g>
</svg>
