<?xml version="1.0" encoding="utf-8"?>
<!-- Generator: Adobe Illustrator 16.0.0, SVG Export Plug-In . SVG Version: 6.00 Build 0)  -->
<!DOCTYPE svg PUBLIC "-//W3C//DTD SVG 1.1//EN" "http://www.w3.org/Graphics/SVG/1.1/DTD/svg11.dtd">
<svg version="1.1" id="Layer_1" xmlns="http://www.w3.org/2000/svg" xmlns:xlink="http://www.w3.org/1999/xlink" x="0px" y="0px"
	 width="618.167px" height="230.75px" viewBox="0 0 618.167 230.75" enable-background="new 0 0 618.167 230.75"
	 xml:space="preserve">
<path fill="#231F20" d="M613.583,212.77c0,5.326-3.225,9.646-7.201,9.646H10.783c-3.977,0-7.2-4.317-7.2-9.646V16.392
	c0-5.327,3.224-9.645,7.2-9.645h595.599c3.979,0,7.201,4.318,7.201,9.645V212.77z"/>
<path fill="none" stroke="#241F21" stroke-width="3.7285" stroke-linecap="round" stroke-linejoin="round" stroke-miterlimit="10" stroke-dasharray="0,14.3834" d="
	M23.127,210.296c0,2.394,1.317,4.541,3.41,6.019"/>
<path fill="none" stroke="#241F21" stroke-width="3.7285" stroke-linecap="round" stroke-linejoin="round" stroke-miterlimit="10" stroke-dasharray="0,14.3834" d="
	M33.317,98.452c-2.604,0-4.979,0.772-6.78,2.042"/>
<line fill="none" stroke="#FFFFFF" stroke-width="4" stroke-linecap="round" stroke-linejoin="round" stroke-dasharray="0,12.2805" x1="13.83" y1="27.819" x2="13.83" y2="209.497"/>
<line fill="none" stroke="#FFFFFF" stroke-width="4" stroke-linecap="round" stroke-linejoin="round" stroke-dasharray="0,10.5183" x1="14.917" y1="214.997" x2="604.582" y2="214.997"/>
<line fill="none" stroke="#FFFFFF" stroke-width="4" stroke-linecap="round" stroke-linejoin="round" stroke-dasharray="0,10.5183" x1="14.917" y1="13.997" x2="604.582" y2="13.997"/>
<line fill="none" stroke="#FFFFFF" stroke-width="4" stroke-linecap="round" stroke-linejoin="round" stroke-dasharray="0,12.2805" x1="603.849" y1="201.838" x2="603.849" y2="20.161"/>
<g enable-background="new    ">
	<path fill="#FFFFFF" d="M181.444,63.746c3.005-5.695,7.593-0.633,9.175,1.582c9.491,27.208,15.977,54.891,27.524,83.206
		l1.582-22.146c1.74-19.933,1.898-37.175,1.74-57.106c0.633-2.689,3.48-3.954,6.011-3.954c1.898,0,3.48,0.474,4.429,2.056
		c-2.848,34.169-4.113,70.552-5.22,106.936l-0.158,2.057c-0.316,0.79-2.373,3.005-3.796,3.005c-1.424,0-3.797-1.898-4.43-3.005
		c-9.808-29.582-20.881-58.53-30.372-88.27l-1.107,90.167c-3.639,8.227-9.175,3.955-9.333-0.791L181.444,63.746z"/>
	<path fill="#FFFFFF" d="M277.148,54.255c28.315,3.163,24.203,70.552,22.621,91.591c-1.107,11.547-6.96,31.637-22.779,31.637
		c-28,0-29.265-47.772-29.265-66.28C247.725,91.112,249.148,54.255,277.148,54.255z M256.742,110.569
		c0,46.349,8.542,59.004,19.773,59.004c15.502,0,15.661-40.18,15.661-50.146v-0.633c0-12.181-3.322-56.473-18.35-56.473
		c-11.864,0-16.926,26.417-16.926,34.326C256.742,101.711,256.742,106.141,256.742,110.569z"/>
	<path fill="#FFFFFF" d="M319.072,64.221c-9.808,0.633-14.237,0.475-14.554-2.215c0.316-5.379,0.316-7.276,16.769-6.328h13.287
		c3.48,0.158,9.334,0.633,9.334,5.221c0,1.424-1.74,3.006-3.164,3.006h-13.288l3.005,100.449c0,1.424-3.163,2.215-4.112,2.215
		s-4.112-0.791-4.112-2.215L319.072,64.221z"/>
	<path fill="#FFFFFF" d="M351.028,66.593c0-2.847,2.689-5.536,5.536-5.536h24.994c0.949,0,4.113,2.373,4.271,3.164
		c0.158,0.316,0.158,0.475,0.158,0.791c0,3.163-4.271,4.587-6.803,4.587h-18.982l0.791,52.519l17.084-2.531h0.791
		c7.436,0,4.588,7.276-1.74,8.226l-15.818,2.373l-0.475,41.287c1.424,0.158,6.803,0.158,8.227,0.158
		c10.598,0,18.35-3.639,18.824,3.639c0.316,5.378-35.118,4.745-35.118,1.739L351.028,66.593z"/>
	<path fill="#FFFFFF" d="M404.816,151.698c6.328,1.898,0.316,15.818,8.227,20.406h0.949c8.857,0,11.389-12.181,11.389-18.666
		c0-8.7-0.633-18.033-4.271-26.26c-7.435-17.084-23.412-31.32-23.412-50.937c0-8.858,5.378-23.569,16.294-23.569
		c6.96,0,18.508,5.536,18.508,13.762c0,3.006-0.949,4.746-4.113,4.746c-6.169,0-4.271-9.491-12.971-9.491
		c-8.068,0-8.701,11.231-8.701,16.768c0,15.978,13.446,27.209,20.564,40.496c6.486,12.181,9.809,29.897,6.012,41.92
		c-2.531,8.226-9.65,19.457-19.299,19.457c-11.706,0-15.345-14.553-15.345-24.044C398.647,153.597,402.286,150.907,404.816,151.698z
		"/>
</g>
</svg>
