<?xml version="1.0" encoding="utf-8"?>
<!-- Generator: Adobe Illustrator 16.0.0, SVG Export Plug-In . SVG Version: 6.00 Build 0)  -->
<!DOCTYPE svg PUBLIC "-//W3C//DTD SVG 1.1//EN" "http://www.w3.org/Graphics/SVG/1.1/DTD/svg11.dtd">
<svg version="1.1" id="Layer_1" xmlns="http://www.w3.org/2000/svg" xmlns:xlink="http://www.w3.org/1999/xlink" x="0px" y="0px"
	 width="618.167px" height="230.75px" viewBox="0 0 618.167 230.75" enable-background="new 0 0 618.167 230.75"
	 xml:space="preserve">
<g>
	<path fill="#231F20" d="M613.583,214.771c0,5.326-3.225,9.646-7.201,9.646H10.783c-3.977,0-7.2-4.317-7.2-9.646V18.395
		c0-5.327,3.224-9.645,7.2-9.645h595.599c3.979,0,7.201,4.318,7.201,9.645V214.771z"/>
	
		<path fill="none" stroke="#241F21" stroke-width="3.7285" stroke-linecap="round" stroke-linejoin="round" stroke-miterlimit="10" stroke-dasharray="0,14.3834" d="
		M23.127,212.299c0,2.393,1.317,4.541,3.41,6.018"/>
	
		<path fill="none" stroke="#241F21" stroke-width="3.7285" stroke-linecap="round" stroke-linejoin="round" stroke-miterlimit="10" stroke-dasharray="0,14.3834" d="
		M33.317,100.455c-2.604,0-4.979,0.772-6.78,2.042"/>
	
		<line fill="none" stroke="#FFFFFF" stroke-width="4" stroke-linecap="round" stroke-linejoin="round" stroke-dasharray="0,12.2805" x1="13.83" y1="29.822" x2="13.83" y2="211.5"/>
	
		<line fill="none" stroke="#FFFFFF" stroke-width="4" stroke-linecap="round" stroke-linejoin="round" stroke-dasharray="0,10.5183" x1="14.917" y1="217" x2="604.582" y2="217"/>
	
		<line fill="none" stroke="#FFFFFF" stroke-width="4" stroke-linecap="round" stroke-linejoin="round" stroke-dasharray="0,10.5183" x1="14.917" y1="16" x2="604.582" y2="16"/>
	
		<line fill="none" stroke="#FFFFFF" stroke-width="4" stroke-linecap="round" stroke-linejoin="round" stroke-dasharray="0,12.2805" x1="603.849" y1="203.841" x2="603.849" y2="22.164"/>
</g>
<g enable-background="new    ">
	<path fill="#FFFFFF" d="M151.396,157.285c5.853,0.949,4.746,8.7,11.073,9.649c10.282,1.74,12.655-5.536,14.079-14.078
		c2.848-17.876-5.853-31.321-15.344-46.191c-4.43-6.96-6.802-12.971-5.378-21.83c2.214-12.496,8.226-21.039,21.355-21.039
		c1.107,0,2.215,0,3.48,0.158c4.271,0.475,7.276,1.424,6.485,5.854c-1.423,7.751-18.191-5.379-21.83,16.768
		c-1.74,10.124,2.373,14.237,7.751,23.412c8.384,14.553,15.661,27.524,12.813,44.609c-2.215,12.971-7.593,20.563-20.406,20.563
		c-1.266,0-2.531,0-3.797-0.158c-5.536-0.948-15.186-6.327-15.186-12.812c0-0.316,0.158-0.791,0.158-1.107
		C146.808,159.184,149.181,157.285,151.396,157.285z"/>
	<path fill="#FFFFFF" d="M203.123,64.587c0-2.847,2.689-5.536,5.537-5.536h24.994c0.949,0,4.113,2.373,4.271,3.164
		c0.158,0.316,0.158,0.475,0.158,0.791c0,3.163-4.271,4.587-6.802,4.587h-18.982l0.791,52.519l17.084-2.531h0.791
		c7.435,0,4.587,7.276-1.74,8.226l-15.819,2.373l-0.474,41.287c1.423,0.158,6.802,0.158,8.226,0.158
		c10.599,0,18.35-3.639,18.824,3.639c0.316,5.378-35.118,4.745-35.118,1.739L203.123,64.587z"/>
	<path fill="#FFFFFF" d="M262.922,145.579l-0.949,0.949l-2.689,17.876c-0.316,2.372-0.158,9.175-4.746,9.175
		c-2.057,0-3.48-4.113-3.48-5.695c16.452-114.686,16.61-115.002,16.61-115.002c0.791-3.006,1.898-7.436,5.853-7.436
		c1.74,0,3.955,0.791,4.904,2.373l1.266,3.322c9.175,36.225,13.446,73.398,17.717,110.731l0.949,10.282
		c0,0.158-0.158,0.158-0.158,0.316c-1.107,3.005-1.74,4.271-4.746,4.271h-0.475c-0.949,0-2.531,0-2.689-1.107l-3.955-30.056H262.922
		z M265.295,135.771l19.773,0.475L274.47,62.373L265.295,135.771z"/>
	<path fill="#FFFFFF" d="M308.007,165.985c0-35.592,1.266-71.501,2.215-107.093c0.316-7.276,3.006-7.276,9.333-7.276h1.582
		c14.554,0,23.886,9.491,23.886,23.411v1.74c0,11.548-3.005,24.994-13.445,32.112c0.791,0.791,4.43,5.062,5.062,6.169
		c7.117,9.334,5.378,31.954,6.169,42.869c0,0.949,0.948,8.226,0.948,9.175v1.266c0,2.689-2.53,3.006-4.587,3.006h-0.158
		c-1.739,0-3.796,0-4.429-2.215c-0.158-5.22-1.582-29.423-1.898-34.801c-0.633-7.752-2.215-18.351-11.864-18.351h-2.531
		c-0.316,1.424-0.948,7.752-0.948,9.175c-0.158,1.424-0.949,36.542-1.107,49.987c0,3.006,0.475,6.328-3.48,6.328
		c-1.74,0-3.639-0.633-4.746-2.215V165.985z M320.346,104.767c11.231,0,15.503-20.723,15.503-27.999
		c0-7.435-3.48-16.926-12.498-16.926c-2.372,0-3.954,1.424-3.954,4.112c0.158,13.763-1.107,25.311-1.107,39.39
		C318.29,104.608,319.397,104.767,320.346,104.767z"/>
	<path fill="#FFFFFF" d="M397.703,59.842c0,5.536-9.175,4.429-11.39,4.429h-0.949c-15.345,0-22.146,31.796-22.146,49.672
		c0,20.248,1.266,34.643,15.187,46.19c6.802,5.694,17.242-0.158,19.615,4.113c3.164,5.536-2.689,7.435-7.752,7.435
		c-35.908-0.791-41.445-48.405-34.168-79.252c3.797-16.452,13.604-38.44,34.168-38.44C393.589,53.988,397.703,56.203,397.703,59.842
		z"/>
	<path fill="#FFFFFF" d="M420.009,130.077v44.609c0,7.118-8.701,4.429-9.018,2.372c0-5.694,0.316-31.954,0.316-37.49
		c0-12.339,1.107-76.088,1.266-88.269c1.266-1.266,2.689-1.266,4.43-1.266c2.215,0,3.48,1.424,4.904,3.322
		c0,15.186-1.424,36.857-1.424,52.992c0,2.215,0,12.339,0.158,14.396c1.266,1.424,2.373,1.107,3.797,1.107
		c6.011,0,12.021,0,17.875,0.316c1.265-17.876,1.897-48.722,1.423-68.812v-0.791c0-2.373,1.898-3.48,4.113-3.48
		c1.898,0,4.113,1.582,5.221,3.164c0,3.479-0.475,13.604-0.633,16.926c-2.215,72.608,1.739,109.308-3.48,109.466
		c-5.536,0.158-5.536-6.644-5.536-17.242c0-2.848-0.791-28.474-0.791-31.321H420.009z"/>
</g>
</svg>
